<?xml version="1.0" encoding="utf-8"?>
<!-- Generator: Adobe Illustrator 16.0.0, SVG Export Plug-In . SVG Version: 6.00 Build 0)  -->
<svg version="1.1" id="Layer_1" xmlns="http://www.w3.org/2000/svg" xmlns:xlink="http://www.w3.org/1999/xlink" x="0px" y="0px"
	 width="300px" height="300px" viewBox="0 0 300 300" enable-background="new 0 0 300 300" xml:space="preserve">
<path id="path8995" fill="#333333" d="M143.465,300.705c-0.719-0.056-2.894-0.224-4.833-0.372
	c-44.33-3.388-84.843-26.358-110.954-62.907C13.481,217.551,4.072,193.33,1.107,169.027c-1.476-12.102-1.476-25.23,0-37.332
	C6.432,88.046,31.126,48.592,68.358,24.244c18.8-12.293,40.389-20.237,62.697-23.073C138.459,0.23,142.088,0.01,150.258,0
	c8.159-0.006,11.792,0.21,19.463,1.178c41.297,5.194,78.818,27.74,103.377,62.119c14.185,19.855,23.61,44.115,26.571,68.399
	c1.115,9.138,1.433,22.296,0.73,30.283c-1.622,18.477-5.729,34.5-12.915,50.385c-18.048,39.901-52.852,70.125-94.964,82.464
	c-9.123,2.674-18.135,4.358-28.938,5.407C159.836,300.597,146.206,300.916,143.465,300.705z M158.583,272.274
	c0.411-0.214,0.914-0.392,1.115-0.392c0.204,0,1.332-0.483,2.513-1.076c4.454-2.236,6.655-5.563,7.921-11.967
	c0.129-0.648,0.828-1.602,2.432-3.315c1.24-1.325,4.486-4.828,7.217-7.782c2.73-2.957,7.079-7.655,9.666-10.444
	c4.38-4.724,7.27-7.849,19.271-20.829c2.553-2.76,5.846-6.346,7.315-7.964c1.471-1.618,4.855-5.26,7.523-8.092
	c2.668-2.833,5.023-5.401,5.233-5.711c0.211-0.313,2.555-2.861,5.209-5.671c2.653-2.81,7.06-7.526,9.79-10.48
	c15.923-17.23,22.798-24.404,23.387-24.404c0.281,0,0.809,0.756,1.503,2.154c1.904,3.826,4.952,6.526,8.768,7.767
	c1.5,0.486,2.229,0.563,4.574,0.483c2.666-0.092,2.885-0.145,5.007-1.2c4.092-2.033,5.479-3.468,7.581-7.85
	c0.998-2.082,1.041-2.272,1.041-4.776c0-2.582-0.014-2.635-1.293-5.345c-1.716-3.635-3.632-5.681-6.778-7.237l-2.209-1.096h-3.954
	h-3.95l-1.966,0.971c-1.08,0.533-2.521,1.46-3.204,2.059c-1.179,1.036-3.231,3.816-4.177,5.651
	c-0.844,1.635-0.146,2.243-11.848-10.306c-9.27-9.938-23.513-25.3-28.096-30.293c-1.615-1.763-3.876-4.194-5.026-5.405
	c-1.147-1.21-3.236-3.47-4.638-5.02c-1.401-1.553-4.752-5.198-7.446-8.099c-2.692-2.904-7.131-7.694-9.861-10.648
	c-2.729-2.954-7.081-7.651-9.666-10.441c-2.586-2.79-6.879-7.431-9.536-10.316c-2.658-2.885-6.257-6.77-7.995-8.631
	s-3.344-3.763-3.567-4.227c-0.223-0.464-0.536-1.576-0.699-2.467c-0.163-0.891-0.517-2.115-0.788-2.717
	c-0.445-0.997-0.454-1.155-0.092-1.708c0.517-0.786,0.268-1.395-0.569-1.395c-0.461,0-1.27-0.559-2.635-1.826
	c-1.375-1.273-2.661-2.165-4.243-2.934c-2.234-1.092-2.322-1.112-5.422-1.198l-3.151-0.085l-2.597,1.316
	c-1.428,0.724-3.055,1.694-3.615,2.158c-2.128,1.763-4.277,5.912-4.763,9.198c-0.213,1.444-0.642,2.063-2.118,3.063
	c-0.685,0.464-2.304,1.625-3.596,2.579c-2.864,2.112-7.724,5.675-12.28,9c-1.868,1.365-4.572,3.346-6.009,4.398
	c-4.114,3.023-8.85,6.483-12.54,9.167c-1.868,1.359-4.043,2.954-4.833,3.543c-0.791,0.592-2.966,2.184-4.833,3.54
	c-4.516,3.273-6.868,4.987-10.815,7.881c-1.812,1.326-4.233,3.096-5.383,3.928c-1.149,0.835-3.618,2.638-5.487,4.01
	c-1.868,1.372-4.292,3.128-5.386,3.901c-1.096,0.776-3.431,2.467-5.191,3.76c-1.76,1.292-4.35,3.171-5.754,4.177
	c-1.404,1.003-3.697,2.648-5.096,3.655c-4.787,3.438-7.571,5.339-7.833,5.342c-0.144,0-0.79-1.076-1.437-2.395
	c-1.521-3.099-3.002-4.898-5.261-6.385c-3.194-2.102-7.115-2.915-10.346-2.142c-2.956,0.708-4.573,1.592-6.781,3.704
	c-1.706,1.632-2.382,2.513-3.331,4.352l-1.192,2.303v3.563v3.559l1.095,2.01c1.624,2.984,4.348,5.691,6.929,6.886
	c3.231,1.497,5.814,1.885,8.275,1.244c0.591-0.155,1.546-0.401,2.121-0.546c2.567-0.648,6.48-4.06,7.918-6.909
	c0.882-1.743,1.425-2.315,1.994-2.099c0.442,0.171,1.627,1.776,7.265,9.833c8.989,12.849,13.782,20.023,13.782,20.628
	c0,0.609-7.082,11.165-16.004,23.852c-0.897,1.276-1.799,2.569-2.006,2.872c-1.793,2.642-3.008,4.079-3.449,4.079
	c-0.108,0-0.641-0.846-1.183-1.875c-1.807-3.438-5.175-6.372-8.662-7.55c-1.336-0.45-2.102-0.526-4.55-0.454
	c-2.751,0.082-3.072,0.148-4.914,1.026c-3.893,1.858-5.234,3.168-7.512,7.336l-1.1,2.013v3.507v3.507l1.192,2.236
	c1.412,2.655,3.021,4.521,5.131,5.951c2.478,1.681,3.912,2.053,7.927,2.053h3.456l2.186-1.089c3.117-1.553,5.231-3.721,6.892-7.069
	c0.852-1.717,1.405-2.546,1.704-2.546c0.492,0,5.289,3.371,20.338,14.296c3.459,2.514,5.269,3.813,5.876,4.224
	c0.305,0.207,1.849,1.332,3.429,2.5c2.708,2,4.339,3.188,9.894,7.197c1.275,0.921,3.802,2.77,5.617,4.105
	c4.546,3.346,7.675,5.639,11.66,8.546c1.869,1.362,4.808,3.51,6.532,4.776c1.724,1.264,4.176,3.053,5.449,3.978
	c1.273,0.921,3.983,2.911,6.023,4.417c2.041,1.511,5.162,3.8,6.936,5.093c14.25,10.377,14.904,10.877,15.016,11.449
	c0.06,0.307,0.255,1.31,0.434,2.23c0.571,2.941,1.959,5.358,4.445,7.733c1.9,1.816,2.506,2.225,4.544,3.05
	c2.047,0.832,2.638,0.957,4.57,0.971C157.101,272.659,158.081,272.537,158.583,272.274L158.583,272.274z M153.583,269.896
	c-0.901-0.197-2.136-0.608-2.744-0.917c-1.442-0.737-4.798-3.987-5.476-5.31c-0.611-1.194-1.245-3.974-1.245-5.461
	c0-1.147,0.867-4.262,1.569-5.641c0.699-1.371,3.442-3.845,5.151-4.645c1.309-0.615,1.906-0.721,4.485-0.796
	c2.518-0.076,3.229,0,4.654,0.477c3.207,1.086,5.717,3.608,6.887,6.934c0.46,1.31,0.527,1.983,0.431,4.293
	c-0.153,3.615-0.762,5.224-2.806,7.408c-1.774,1.897-3.288,2.789-5.999,3.539C156.293,270.386,155.891,270.396,153.583,269.896
	L153.583,269.896z M169.792,254.85c-0.14-0.178-0.55-0.973-0.91-1.763c-0.911-2.003-2.907-4.552-4.486-5.729
	c-2.822-2.105-5.191-2.885-8.783-2.885c-5.101,0-9.724,2.911-12.166,7.657c-0.99,1.928-1.459,2.431-1.966,2.118
	c-0.242-0.15-2.675-3.349-3.891-5.114c-0.361-0.523-1.385-1.99-2.275-3.264c-0.891-1.27-2.196-3.132-2.9-4.138
	c-0.703-1.004-1.947-2.767-2.763-3.915c-0.816-1.147-2.451-3.493-3.632-5.207c-1.181-1.714-2.619-3.79-3.193-4.608
	c-0.575-0.819-2.051-2.938-3.281-4.714c-13.966-20.135-17.035-24.728-16.849-25.211c0.13-0.339,0.482-0.375,2.174-0.227
	c1.11,0.099,2.431,0.282,2.934,0.407c0.503,0.122,2.09,0.422,3.527,0.661c1.437,0.237,3.101,0.54,3.698,0.672
	c0.597,0.131,1.833,0.354,2.744,0.5c0.911,0.145,2.54,0.44,3.617,0.654c1.077,0.217,2.899,0.563,4.049,0.767
	c1.149,0.204,4.5,0.865,7.446,1.467c2.946,0.605,5.827,1.178,6.401,1.276c2.003,0.346,2.232,0.592,2.904,3.122
	c0.661,2.483,2.361,5.385,4.063,6.921c2.901,2.625,5.814,3.803,9.413,3.806c4.181,0.007,6.815-1.089,9.945-4.128
	c2.31-2.243,3.271-3.915,3.978-6.915c0.317-1.345,0.673-2.178,1.104-2.582c0.651-0.615,2.651-1.763,10.395-5.961
	c2.444-1.322,5.676-3.082,7.185-3.904c3.332-1.822,7.385-4.013,27.041-14.632c7.305-3.943,14.041-7.568,20.367-10.954
	c9.855-5.279,14.559-7.815,17.908-9.657c5.154-2.836,8.315-4.441,8.746-4.441c0.776,0,0.375,0.846-1.105,2.336
	c-0.825,0.832-2.736,2.888-4.246,4.569c-1.507,1.684-4.624,5.059-6.923,7.503c-2.298,2.444-4.533,4.898-4.964,5.454
	s-2.665,3.017-4.964,5.467c-4.101,4.372-8.515,9.132-18.156,19.579c-2.659,2.882-7.01,7.576-9.668,10.432
	c-2.658,2.854-6.127,6.621-7.707,8.375c-1.581,1.75-3.826,4.193-4.99,5.434c-3.134,3.332-6.918,7.401-12.776,13.733
	c-7.384,7.984-16.346,17.365-16.584,17.365C170.139,255.176,169.932,255.03,169.792,254.85L169.792,254.85z M135.48,251.604
	c-0.924-0.671-2.504-1.829-3.511-2.565c-1.935-1.425-3.647-2.665-7.195-5.217c-1.198-0.862-2.773-2-3.5-2.53
	c-0.728-0.532-1.734-1.26-2.237-1.621c-0.503-0.362-2.396-1.747-4.208-3.083c-1.811-1.332-4.273-3.131-5.472-3.993
	c-1.199-0.858-3.14-2.27-4.314-3.132c-1.174-0.861-3.113-2.27-4.309-3.131c-1.196-0.862-2.77-2-3.497-2.533
	c-0.727-0.529-1.733-1.26-2.237-1.618c-1.869-1.343-9.368-6.819-15.047-10.99c-1.759-1.293-4.266-3.115-5.573-4.046
	c-1.308-0.935-2.993-2.175-3.745-2.757c-0.752-0.586-2.191-1.642-3.197-2.349c-1.006-0.708-3.02-2.168-4.476-3.247
	c-2.378-1.763-4.477-3.306-12.581-9.26c-1.334-0.98-2.381-1.911-2.327-2.072c0.055-0.158,0.442-0.27,0.859-0.25
	c1.048,0.053,4.458,0.569,5.723,0.871c0.575,0.136,2.104,0.435,3.396,0.662c1.293,0.229,3.233,0.588,4.311,0.796
	c6.722,1.306,8.906,1.714,10.32,1.94c0.718,0.115,2.247,0.398,3.396,0.625c1.149,0.23,2.442,0.487,2.873,0.569
	c0.432,0.082,1.607,0.313,2.613,0.51s4.944,0.967,8.752,1.707c3.808,0.74,7.234,1.478,7.614,1.642s1.267,1.063,1.971,1.997
	c2.131,2.825,10.841,14.993,15.496,21.645c1.221,1.747,2.632,3.736,3.135,4.424c2.009,2.74,6.055,8.48,10.055,14.264
	c1.789,2.586,4.659,6.69,6.379,9.125c1.72,2.431,3.069,4.517,2.998,4.632C137.689,253.035,137.132,252.805,135.48,251.604
	L135.48,251.604z M155.05,215.89c-0.072-0.072-0.758-0.25-1.526-0.395c-2.168-0.411-4.05-1.404-5.784-3.056
	c-1.786-1.704-2.279-2.536-3.07-5.194c-0.69-2.322-0.694-3.645-0.02-6.079c0.729-2.628,1.124-3.31,2.975-5.118
	c1.987-1.944,3.647-2.855,6.16-3.379c1.75-0.364,2.146-0.364,3.913-0.006c4.068,0.818,7.027,2.97,8.668,6.299
	c0.771,1.566,0.875,2.04,0.963,4.411c0.168,4.572-1.302,7.853-4.568,10.182c-1.754,1.25-2.839,1.681-5.464,2.171
	C155.523,216.055,155.234,216.074,155.05,215.89L155.05,215.89z M137.064,202.262c-0.359-0.06-2.063-0.392-3.788-0.737
	c-1.725-0.345-4.487-0.878-6.14-1.188c-1.652-0.306-3.827-0.72-4.833-0.921c-1.006-0.2-2.828-0.536-4.049-0.743
	c-1.222-0.211-3.984-0.747-6.14-1.194c-2.155-0.444-4.448-0.908-5.094-1.029c-1.74-0.329-5.253-1.033-6.068-1.214
	c-0.721-0.161-2.189-1.721-3.878-4.115c-0.494-0.697-1.132-1.596-1.419-1.99c-5.003-6.878-11.365-16.194-11.365-16.642
	c0-0.757,2.052-1.7,8.099-3.733c1.653-0.556,3.712-1.27,4.576-1.589c2.022-0.74,2.669-0.572,4.536,1.178
	c0.808,0.76,1.74,1.559,2.069,1.783c0.331,0.22,1.918,1.588,3.527,3.039c1.609,1.45,4.423,3.961,6.253,5.579
	c1.83,1.618,4.946,4.385,6.924,6.147c1.978,1.761,4.631,4.112,5.896,5.221c1.265,1.108,3.831,3.428,5.704,5.151
	c1.873,1.721,3.66,3.3,3.971,3.507c1.152,0.76,3.047,2.753,3.047,3.204C138.893,202.449,138.525,202.508,137.064,202.262
	L137.064,202.262z M169.715,201.252c-0.141-0.369-0.254-0.783-0.254-0.925c0-0.819-2.819-5.382-3.955-6.401
	c-2.584-2.319-5.28-3.471-8.615-3.681c-6.001-0.375-10.935,2.599-13.842,8.346c-0.708,1.401-1.353,2.546-1.432,2.546
	c-0.433,0-1.555-0.839-3.899-2.918c-1.438-1.273-4.175-3.694-6.086-5.378c-1.909-1.682-4.966-4.386-6.792-6.004
	c-1.826-1.618-4.418-3.911-5.759-5.092c-8.388-7.382-17.042-15.405-16.948-15.714c0.114-0.375,2.01-1.279,4.626-2.204
	c1.221-0.431,3.514-1.243,5.095-1.806c17.438-6.201,29.153-10.076,29.604-9.793c0.205,0.128,0.575,0.878,0.821,1.664
	c1.068,3.411,3.515,6.589,6.482,8.418c5.357,3.306,12.484,2.379,16.958-2.204c1.582-1.621,3.743-5.197,3.743-6.193
	c0-0.951,0.564-2.053,1.201-2.343c0.479-0.217,12.818-0.296,46.621-0.296c43.605,0,45.97,0.023,45.968,0.457
	c-0.003,0.517-0.185,0.635-5.747,3.675c-2.227,1.217-5.166,2.829-6.531,3.582s-4.597,2.51-7.184,3.901
	c-2.588,1.392-6.937,3.74-9.666,5.221c-2.73,1.479-7.081,3.825-9.668,5.217c-2.586,1.389-7.172,3.855-10.188,5.48
	c-3.019,1.628-7.839,4.217-10.713,5.76c-2.873,1.539-6.459,3.471-7.969,4.293c-3.876,2.111-13.334,7.178-19.332,10.352
	c-2.803,1.483-5.362,2.701-5.69,2.704C170.165,201.919,169.886,201.702,169.715,201.252L169.715,201.252z M26.807,196.104
	c-5.212-1.773-8.054-5.704-8.083-11.174c-0.009-1.596,0.623-4.182,1.364-5.589c0.614-1.168,2.211-2.853,3.578-3.773
	c2.332-1.576,3.746-1.925,7.292-1.789c2.623,0.102,3.218,0.21,4.346,0.792c3.172,1.639,4.933,3.553,5.899,6.418
	c0.468,1.389,0.542,2.115,0.463,4.569c-0.084,2.622-0.173,3.075-0.877,4.467c-1.179,2.332-2.988,4.161-5.183,5.237
	C32.448,196.808,29.657,197.077,26.807,196.104L26.807,196.104z M94.61,194.176c-1.257-0.276-6.125-1.2-7.316-1.392
	c-0.718-0.115-2.305-0.407-3.526-0.651c-1.222-0.243-2.985-0.595-3.919-0.782c-2.465-0.49-5.501-1.072-10.973-2.108
	c-2.658-0.504-5.304-1.03-5.878-1.165c-1.368-0.325-12.479-2.51-13.911-2.736c-1.181-0.185-1.599-0.53-1.167-0.961
	c0.336-0.336,3.61-1.523,15.339-5.556c5.173-1.78,10.405-3.583,11.626-4.007c3.365-1.168,5.842-1.875,6.57-1.875
	c0.935,0,1.286,0.408,5.061,5.875c0.793,1.148,2.264,3.263,3.269,4.697c4.764,6.81,6.842,10.046,6.695,10.431
	C96.329,194.337,95.7,194.413,94.61,194.176L94.61,194.176z M48.631,181.824c-0.209-0.339,0.279-1.224,0.85-1.54
	c0.249-0.142,1.607-1.289,3.017-2.559c6.536-5.875,9.806-8.783,12.851-11.441c1.812-1.579,4.057-3.539,4.989-4.358
	c2.181-1.911,2.604-2.046,3.407-1.086c1.607,1.928,6.384,9.359,6.313,9.823c-0.09,0.582-0.401,0.714-7.786,3.349
	c-4.953,1.77-23.224,8.068-23.396,8.068C48.828,182.08,48.718,181.966,48.631,181.824z M49.542,177.324
	c0-0.31,2.708-4.415,4.698-7.122c0.527-0.717,2.114-2.95,3.527-4.961c1.412-2.01,3.178-4.477,3.923-5.483
	c0.745-1.003,2.205-2.98,3.244-4.388c1.04-1.408,2.063-2.625,2.272-2.707c0.21-0.079,0.615,0.065,0.898,0.322
	c0.694,0.625,3.379,4.503,3.382,4.881c0.004,0.514-6.565,6.829-11.797,11.343c-1.198,1.032-3.825,3.352-5.836,5.154
	C50.375,177.476,49.542,178.048,49.542,177.324L49.542,177.324z M81.345,168.702c-1.877-2.342-6.722-9.497-6.722-9.928
	c0-0.325,4.214-4.49,6.07-6c0.662-0.536,1.397-0.977,1.634-0.977c0.572,0,1.881,1.065,5.923,4.829
	c1.852,1.724,3.863,3.522,4.471,4.003c1.905,1.5,4.109,3.793,4.109,4.27c0,0.253-0.323,0.625-0.719,0.826
	c-1.465,0.743-12.052,4.085-12.948,4.085C82.384,169.811,82.091,169.63,81.345,168.702z M97.311,162.436
	c-4.417-3.621-13.021-11.615-13.021-12.092c0-0.405,7.739-7.901,9.537-9.24c0.719-0.536,1.482-1.188,1.698-1.447
	c0.88-1.06,3.924-3.263,4.511-3.263c0.619,0,11.889,3.802,28.276,9.539c4.742,1.658,9.18,3.211,9.863,3.448
	c1.288,0.444,1.679,1.174,0.784,1.457c-0.251,0.079-1.633,0.569-3.07,1.086c-14.138,5.095-34.994,12.145-35.924,12.145
	C99.536,164.067,98.593,163.488,97.311,162.436L97.311,162.436z M277.619,161.518c-2.407-0.888-3.635-1.628-4.69-2.832
	c-2.319-2.638-2.971-4.599-2.846-8.546c0.086-2.674,0.165-3.069,0.944-4.651c0.977-1.98,3.658-4.688,5.416-5.464
	c0.592-0.263,1.942-0.612,3.003-0.776c5.405-0.839,9.963,1.53,12.323,6.401c0.964,1.987,1.005,2.184,1.005,4.724
	c0,3.145-0.48,4.8-2.072,7.145c-1.146,1.682-2.543,2.783-4.925,3.879c-1.19,0.549-1.967,0.704-3.846,0.767
	C279.893,162.229,279.321,162.143,277.619,161.518z M150.766,160.702c-3.159-1.543-4.997-3.688-6.031-7.039
	c-0.678-2.198-0.771-3.819-0.322-5.714c1.086-4.589,4.075-7.71,8.535-8.915c3.182-0.855,4.655-0.681,8.251,0.977
	c2.433,1.125,3.901,2.599,5.188,5.21c0.825,1.678,0.855,1.839,0.855,5.003c0,2.977-0.063,3.398-0.685,4.72
	c-1.029,2.197-2.185,3.639-3.784,4.724c-2.384,1.615-3.886,2.05-7.117,2.05C152.918,161.719,152.787,161.689,150.766,160.702
	L150.766,160.702z M72.496,156.038c-0.851-0.928-2.898-3.865-3.468-4.975c-0.435-0.848-0.43-0.891,0.266-2.088
	c0.779-1.342,3.403-4.921,3.777-5.151c0.373-0.23,1.255,0.352,3.131,2.069c0.96,0.878,2.233,1.983,2.826,2.457
	c1.782,1.424,1.727,1.872-0.518,4.145c-1.88,1.904-4.728,4.263-5.148,4.263C73.248,156.758,72.858,156.433,72.496,156.038
	L72.496,156.038z M172.855,149.265c-2.684-0.128-2.727-0.151-3.114-1.701c-0.189-0.76-0.869-2.405-1.511-3.655
	c-3.388-6.615-10.901-9.411-17.658-6.569c-2.307,0.97-4.632,2.727-5.729,4.326c-1.132,1.648-2.815,5.092-2.815,5.76
	c0,1.25-1.641,0.977-8.622-1.447c-2.228-0.773-7.812-2.71-12.411-4.306c-7.838-2.717-17.175-6.026-18.236-6.457
	c-0.284-0.115-0.44-0.405-0.392-0.724c0.102-0.685,6.505-6.668,18.359-17.156c6.603-5.842,9.913-8.78,12.373-10.974
	c1.534-1.369,3.097-2.72,3.475-3.003c0.377-0.279,1.526-1.247,2.554-2.145c1.027-0.898,2.071-1.628,2.318-1.628
	c0.31,0.003,0.798,0.737,1.565,2.355c1.386,2.927,3.778,5.497,6.293,6.763c1.91,0.96,5.119,1.845,6.675,1.839
	c2.859-0.01,6.812-1.569,9.026-3.56c1.604-1.441,3.817-4.694,4.218-6.197c0.402-1.52,0.608-1.845,1.219-1.938
	c0.475-0.069,9.664,4.447,11.688,5.747c0.432,0.276,3.547,1.948,6.923,3.71c5.519,2.885,11.18,5.895,20.9,11.115
	c1.796,0.967,5.794,3.105,8.883,4.757c3.091,1.651,7.851,4.211,10.581,5.685c2.729,1.474,7.315,3.941,10.19,5.483
	c22.061,11.829,23.514,12.645,23.514,13.201c0,0.434-0.247,0.533-1.699,0.674C259.754,149.383,176.179,149.426,172.855,149.265z
	 M79.969,147.104c-3.695-3.168-5.346-4.78-5.346-5.217c0-0.431,2.447-4.233,4.706-7.319c0.579-0.79,1.432-1.997,1.896-2.681
	c0.465-0.684,1.081-1.306,1.37-1.381c0.714-0.191,13.739,4.171,14.153,4.737c0.427,0.582,0.107,1.154-1.257,2.25
	c-0.589,0.474-2.561,2.233-4.38,3.915c-1.819,1.677-3.774,3.395-4.346,3.813c-0.571,0.417-1.274,1.026-1.561,1.358
	c-0.77,0.881-2.497,2.085-2.988,2.085C81.98,148.663,80.969,147.962,79.969,147.104z M65.427,145.89
	c-0.906-1.237-2.526-3.438-3.602-4.892c-1.075-1.454-2.695-3.701-3.6-4.993c-1.57-2.247-2.297-3.303-6.554-9.518
	c-1.818-2.655-2.169-3.408-1.583-3.408c0.414,0,1.954,1.342,14.309,12.468c7.001,6.306,7.162,6.471,6.958,7.161
	c-0.392,1.329-3.382,5.421-3.969,5.428C67.215,148.14,66.333,147.13,65.427,145.89z M259.465,144.242
	c-1.582-0.846-5.344-2.852-8.362-4.458c-3.016-1.605-7.837-4.184-10.71-5.73c-2.875-1.546-7.635-4.105-10.582-5.685
	c-2.944-1.58-7.412-3.994-9.928-5.366c-2.514-1.372-5.982-3.25-7.708-4.171c-1.724-0.924-5.339-2.872-8.031-4.332
	c-2.692-1.457-7.044-3.813-9.666-5.227c-2.623-1.417-6.827-3.697-9.342-5.063c-2.514-1.368-6.336-3.447-8.49-4.618
	c-6.678-3.632-6.291-3.293-7.02-6.145c-1.165-4.553-3.622-7.658-7.543-9.54c-5.096-2.444-10.515-1.898-14.961,1.507
	c-2.407,1.842-5.094,6.477-5.094,8.786c0,0.546-0.238,0.79-1.242,1.283c-1.353,0.661-2.758,1.007-9.862,2.441
	c-6.81,1.372-8.123,1.628-10.451,2.036c-4.906,0.865-6.613,1.178-7.968,1.451c-5.901,1.194-9.634,1.704-9.978,1.358
	c-0.274-0.273,1.762-3.447,8.159-12.714c1.288-1.868,3.429-4.977,4.758-6.908c3.729-5.418,5.416-7.849,7.1-10.227
	c0.851-1.201,2.967-4.224,4.702-6.717c1.735-2.49,3.829-5.487,4.653-6.654c0.823-1.171,2.146-3.066,2.938-4.217
	c0.791-1.148,1.914-2.733,2.495-3.523s1.375-1.908,1.765-2.484c2.286-3.378,2.842-3.661,3.738-1.908
	c2.487,4.872,5.52,7.276,10.757,8.533c1.875,0.448,3.241,0.365,6.194-0.378c2.868-0.724,3.024-0.822,6.036-3.786
	c1.068-1.049,1.83-2.158,2.735-3.98c1.426-2.872,1.781-3.059,2.909-1.543c0.401,0.537,3.315,3.708,6.48,7.04
	c12.168,12.829,14.921,15.77,15.678,16.757c0.433,0.559,2.931,3.29,5.556,6.069c2.625,2.776,6.063,6.461,7.642,8.185
	c1.577,1.72,5.015,5.447,7.638,8.279c2.622,2.829,7.004,7.563,9.734,10.517c2.729,2.951,7.138,7.71,9.796,10.579
	c2.657,2.865,6.921,7.474,9.47,10.237c2.55,2.767,6.605,7.166,9.014,9.777c8.178,8.868,10.648,11.592,10.733,11.842
	C263.41,146.12,262.164,145.686,259.465,144.242L259.465,144.242z M70.34,138.561c-1.121-0.977-2.409-2.066-2.862-2.424
	c-0.452-0.355-2.117-1.796-3.697-3.204c-1.581-1.404-4.562-4.049-6.625-5.879c-6.335-5.608-8.567-7.826-8.222-8.168
	c0.305-0.306,4.356,0.977,16.545,5.244c2.515,0.881,5.865,2.053,7.446,2.605c6.958,2.432,7.375,2.646,7.061,3.636
	c-0.176,0.553-2.744,4.448-5.266,7.984c-0.741,1.036-1.528,1.858-1.823,1.901C72.562,140.304,71.654,139.702,70.34,138.561z
	 M96.438,133.126c-2.546-0.701-9.477-3.208-10.923-3.951c-1.065-0.543-1.233-0.819-0.949-1.567
	c0.402-1.059,10.855-16.184,14.693-21.263c0.507-0.671,1.38-1.023,3.523-1.421c1.109-0.207,3.486-0.671,5.282-1.033
	c5.742-1.155,7.399-1.474,9.536-1.836c1.149-0.194,3.207-0.579,4.572-0.858c1.365-0.276,3.658-0.704,5.095-0.951
	c1.437-0.247,3.024-0.546,3.527-0.667c0.502-0.122,1.502-0.296,2.221-0.392c0.719-0.092,1.659-0.267,2.09-0.388
	c0.431-0.122,1.459-0.296,2.286-0.388c1.355-0.155,1.501-0.122,1.501,0.319c0,0.513-1.029,1.619-2.663,2.859
	c-0.531,0.404-2.059,1.717-3.396,2.921c-1.337,1.201-3.527,3.138-4.866,4.306c-1.339,1.167-3.903,3.467-5.698,5.112
	c-1.795,1.645-3.521,3.165-3.836,3.381c-0.315,0.214-1.943,1.632-3.618,3.145c-1.676,1.516-4.601,4.105-6.5,5.756
	c-1.899,1.652-4.114,3.593-4.922,4.313C99.791,133.735,99.299,133.916,96.438,133.126L96.438,133.126z M72.141,124.807
	c-12.583-4.287-22.025-7.596-23.491-8.234c-0.967-0.421-1.21-0.635-0.983-0.862c0.267-0.267,10.35-2.415,16.245-3.46
	c1.221-0.217,3.103-0.569,4.18-0.786c1.078-0.214,2.666-0.513,3.527-0.665c1.437-0.25,6.216-1.171,9.405-1.806
	c0.718-0.145,3.246-0.625,5.617-1.065c2.371-0.444,5.176-0.974,6.232-1.181c2.291-0.447,3.341-0.477,3.577-0.095
	c0.334,0.542-11.393,17.438-14.074,20.276c-0.44,0.467-0.984,0.843-1.207,0.833C80.945,127.751,76.883,126.418,72.141,124.807
	L72.141,124.807z M26.623,126.632c-2.102-0.688-4.803-2.839-6.274-4.99c-2.053-3.007-2.131-8.283-0.176-11.872
	c1.029-1.891,3.636-4.253,5.512-4.993c2.174-0.859,6.846-0.872,8.989-0.023c5.055,2.003,8.009,7.214,7.059,12.451
	c-0.283,1.563-1.964,5.273-2.836,6.266c-0.772,0.878-2.35,1.958-3.895,2.662c-1.235,0.565-1.935,0.69-4.373,0.77
	C28.627,126.964,27.384,126.882,26.623,126.632z M48.163,113.52c-0.456-0.454-1.365,0.276,11.082-8.915
	c3.253-2.404,7.428-5.474,9.275-6.825c10.71-7.836,17.42-12.753,18.905-13.859c0.79-0.589,1.966-1.457,2.612-1.928
	c0.646-0.474,2.601-1.904,4.342-3.188c1.741-1.279,4.21-3.079,5.486-3.997c1.276-0.918,3.496-2.533,4.933-3.589
	c1.437-1.059,3.905-2.862,5.486-4.01c1.581-1.148,4.049-2.951,5.487-4.007c1.437-1.056,3.655-2.671,4.93-3.589
	c1.274-0.921,3.279-2.375,4.456-3.237c2.704-1.98,5.986-4.365,8.069-5.858c0.889-0.638,2.304-1.668,3.145-2.286
	c0.84-0.619,1.634-1.125,1.764-1.125c0.488,0,0.205,0.878-0.614,1.901c-0.467,0.585-1.437,1.911-2.155,2.947
	c-1.3,1.878-5.541,7.941-8.728,12.477c-0.921,1.313-2.126,3.033-2.678,3.822s-1.679,2.392-2.506,3.559
	c-0.826,1.168-2.648,3.75-4.049,5.744c-2.316,3.29-4.56,6.441-7.581,10.638c-0.609,0.845-1.459,2.043-1.89,2.665
	c-0.431,0.618-2.077,2.908-3.658,5.082c-1.581,2.178-3.249,4.49-3.706,5.138c-1.312,1.862-2.469,2.928-3.471,3.198
	c-1.012,0.273-5.239,1.128-7.715,1.559c-0.862,0.151-2.391,0.438-3.396,0.635c-2.235,0.444-5.815,1.132-7.576,1.457
	c-1.902,0.355-5.473,1.046-7.577,1.467c-1.006,0.204-2.535,0.48-3.396,0.622c-0.862,0.138-2.684,0.494-4.049,0.79
	c-1.365,0.296-3.188,0.651-4.049,0.79c-0.863,0.138-2.45,0.431-3.527,0.648c-1.078,0.214-2.9,0.56-4.049,0.76
	c-1.149,0.204-2.388,0.444-2.751,0.537C48.648,113.635,48.267,113.625,48.163,113.52L48.163,113.52z M151.788,107.33
	c-3.032-1.155-5.967-3.994-6.742-6.523c-1.287-4.204-1.209-6.023,0.413-9.529c1.78-3.849,6.053-6.576,10.286-6.563
	c4.541,0.013,8.753,2.625,10.727,6.648c0.73,1.487,0.769,1.733,0.771,4.957c0,3.148-0.053,3.503-0.713,4.911
	c-1.051,2.244-3.454,4.612-5.763,5.685c-1.706,0.792-2.148,0.885-4.63,0.951C153.78,107.928,153.166,107.853,151.788,107.33z
	 M152.609,53.28c-4.316-1.417-7.174-4.332-7.977-8.142c-0.538-2.552-0.559-3.411-0.134-5.46c0.516-2.493,1.525-4.352,3.209-5.917
	c1.658-1.54,2.721-2.155,4.863-2.81c2.45-0.75,4.413-0.707,7.031,0.158c1.911,0.631,2.354,0.911,4.135,2.612
	c2.721,2.595,3.438,4.165,3.584,7.819c0.113,2.835-0.305,4.786-1.296,6.063c-0.267,0.342-0.483,0.773-0.483,0.954
	c0,0.674-3.663,3.74-5.18,4.335C158.543,53.609,154.262,53.826,152.609,53.28z"/>
</svg>
