<?xml version="1.0" encoding="utf-8"?>
<!-- Generator: Adobe Illustrator 19.2.0, SVG Export Plug-In . SVG Version: 6.00 Build 0)  -->
<svg version="1.1" id="Layer_1" xmlns="http://www.w3.org/2000/svg" xmlns:xlink="http://www.w3.org/1999/xlink" x="0px" y="0px"
	 viewBox="0 0 128 128" style="enable-background:new 0 0 128 128;" xml:space="preserve">
<style type="text/css">
	.st0{fill:#00979C;}
</style>
<g id="text12-4">
</g>
<g>
	<path class="st0" d="M64,0C28.7,0,0,28.7,0,64s28.7,64,64,64s64-28.7,64-64S99.3,0,64,0z M88.4,87c-0.5,0-0.9,0-1.4,0
		c-6,0-11.2-2-15.8-6.2c-2.8-2.6-5.1-5.7-7.3-9c-2.1,3.3-4.5,6.4-7.3,9c-4.9,4.5-10.5,6.5-17.1,6.2c-12.7-0.1-22.9-10-22.9-22.3
		c0-12.3,10.3-22.3,23.1-22.3c7,0,12.8,2.3,17.9,7c2.4,2.3,4.5,4.9,6.4,7.7c1.9-2.8,3.9-5.4,6.4-7.7c5.1-4.7,10.9-7,17.9-7
		c12.7,0,23.1,10,23.1,22.3C111.3,76.9,101.1,86.9,88.4,87z"/>
	<path class="st0" d="M88.3,50.2c-9.8,0-14.7,6.3-19.7,14.1c5.9,9.5,10.2,15.2,19.5,14.8l0.2,0c8.4,0,15.2-6.5,15.2-14.4
		S96.7,50.2,88.3,50.2z M93.6,66.2h-4.3v4.3h-4.4v-4.3h-4.3v-4.4h4.3v-4.3h4.4v4.3h4.3V66.2z"/>
	<path class="st0" d="M39.7,50.2c-8.4,0-15.2,6.5-15.2,14.4s6.8,14.4,15.2,14.4l0.2,0c9.2,0.5,13.6-5.2,19.5-14.8
		C54.4,56.5,49.5,50.2,39.7,50.2z M47.4,66.3h-14v-4.6h14V66.3z"/>
</g>
</svg>
