<?xml version="1.0" encoding="utf-8"?>
<!-- Generator: Adobe Illustrator 19.2.0, SVG Export Plug-In . SVG Version: 6.00 Build 0)  -->
<svg version="1.1" id="Layer_1" xmlns="http://www.w3.org/2000/svg" xmlns:xlink="http://www.w3.org/1999/xlink" x="0px" y="0px"
	 viewBox="0 0 128 128" style="enable-background:new 0 0 128 128;" xml:space="preserve">
<style type="text/css">
	.st0{fill:#DB82B5;}
</style>
<g>
	<path class="st0" d="M68.3,65c-1.9,2.3-2.8,5.6-2.8,9.8c0,3.9,0.9,6,2.8,8.4s4.3,4.5,7.4,4.5c2.7,0,5.4-0.1,7.9-1.5V64
		c-2.4-1.6-4.9-2.5-7.5-2.5C72.7,61.5,70.1,62.7,68.3,65z"/>
	<path class="st0" d="M124.1,1H2.9C0.7,1,1,1.5,1,3.6V125c0,2.1-0.3,2,1.7,2h121.5c2,0,2.7,0.1,2.7-2V3.7C127,1.5,126.3,1,124.1,1z
		 M45.8,95.8H32.2V33.1h13.6C45.8,33.1,45.8,95.8,45.8,95.8z M94.9,95.8c0,0-18.7,0.8-23.1,0.8c-5.7,0-10.4-2.1-14.2-6.3
		c-3.8-4.2-5.7-9.5-5.7-15.8c0-6.5,1.9-11.8,5.8-15.9c3.8-4.1,8.8-6.2,14.8-6.2c3.7,0,7.4,0.9,11,2.7v-22h11.3L94.9,95.8L94.9,95.8z
		"/>
</g>
</svg>
