<?xml version="1.0" encoding="utf-8"?>
<!-- Generator: Adobe Illustrator 19.2.0, SVG Export Plug-In . SVG Version: 6.00 Build 0)  -->
<svg version="1.1" id="Layer_1" xmlns="http://www.w3.org/2000/svg" xmlns:xlink="http://www.w3.org/1999/xlink" x="0px" y="0px"
	 viewBox="0 0 128 128" style="enable-background:new 0 0 128 128;" xml:space="preserve">
<style type="text/css">
	.st0{fill:#E26666;}
</style>
<path class="st0" d="M96.2,69.7c0.5,0.5,0.6,1.5-0.1,2c-1.7,1.1-3.8,1-5.8,0.8c-3.3-0.3-7.3-0.5-9-3.6c-0.1,0-0.1-0.1-0.1-0.1
	c-2.2-1.2,1.5-2,2.6-2.2c2.4-0.3,4.8,0.3,7.2,0.9C92.9,67.8,94.8,68.2,96.2,69.7z M126.8,119.7c-1.6,1.1-0.9,3-2,4.3
	s-3.8,1.3-5.2,1.3c-6,0.1-11.9-0.4-17.8,0.1c-1.5,0.1-2.9,0.3-4.3,0.6c-0.4,0.1-1.1,0.3-1.6,0.1c-1.2-0.6-2.3-2.6-3.9-2
	c-1.3,0.5-2.3,2.5-3.9,1.3c-2.9-2.2-5.3-0.2-8.3,0.3c-3.1,0.6-6.1-1.1-9.2-0.2c-2.3,0.6-4.5,1.4-6.9,0.5s-3-2.7-1-4.4
	c3.2-2.7,7.2-3,11.3-2.8c6.1,0.5,12.2,0.1,18.3-0.2c0.2,0,0.3,0.1,0.3,0.2c2.6,1.1,4.3-1.1,5.8-2.9c0.2-0.2,0.5-0.1,0.6,0.1
	c2.2,3.2,4.8-0.4,7.7-0.1c0.8,0.1,1.4,0.2,1.8,1c0.2,0.3,0.2,0.6,0.2,1.1c0.1,1.7,2.3,1.3,2.2-0.3c0-0.2,0.3-0.5,0.5-0.4
	c2.2,0.9,5,2,6.8-0.2c1.5-1.9,1.7-4.7,1.8-7.1c0.3-6.4-0.1-12.8-0.5-19.2c-0.3-6.1-1.1-12.4-0.3-18.5c0.8-6,0.6-12,0.5-18.1
	c-0.1-3.2-0.2-6.4,0-9.6c0.1-2.9,0.6-6,0.3-9.1c-0.3-2.6-1.8-4.8-2.2-7.4c-0.3-2.4,0-4.8,0.5-7.1c0.3-1.4,1.1-3.1,1-4.6
	c-0.1-1.3-0.1-2.6-0.1-3.8c0-0.6-0.1-1.6,0.3-2.2c0.8-0.9,1.1-2.2-0.6-2.4c-4.1-0.5-8.4-3.1-12.3-0.5c0.1,0.9,0.1,1.8-0.1,2.8
	l0.5,0.8c1,0.4,2,0.5,3,0.6c1.3,0,2.6-0.3,3.9-0.2c1.1,0.1,1.9,1.1,1.6,2.3c-0.2,0.9-1.1,1.6-1.5,2.4c-0.9,1.3-0.6,3.2-0.6,4.7
	c-0.1,3.8,0,7.7,0.1,11.4c0.1,3.1,0.4,6.4,0.6,9.5c0.1,0.1,0.2,0.1,0.2,0.2c0.1,3.6,1.3,7.1,1.4,10.7c0.1,0.1-1,4.4-1,4.4
	c-0.1,4.6-0.4,13.1-0.4,13.1c-0.1,7.9-1.4,15.6-0.1,23.5c0.5,3.1-0.6,6.1-0.8,9.3c-0.1,3.4,0.3,6.9-0.2,10.3c0.1,0.2,0,0.4-0.2,0.5
	c-7.2,1.4-14.4,1.6-21.8,1.2c-1.8-0.1-4-0.2-5.7,0.4c-0.6,0.3-1.6,0.8-2.5,0.6c-1.1-0.1-1.6-1-2.6-1.1c-1.3-0.2-2.5-0.5-3.7-0.6
	c-3.2-0.4-6.4-0.6-9.4,0.6c-1.7,0.8-3.4,0.4-5.2-0.2c-2-0.9-3.4-1.8-5.7-0.8c-0.9,0.4-1.7,0.9-2.7,1.1c-0.9,0.2-1.6,0-2.3-0.3
	c-1.7-0.6-3-0.9-4.7-0.5c0.2,0.2,0.1,0.8-0.3,0.8c-10.7-0.5-21.3,0.6-32,0.9c-0.5,0.1-0.9,0.6-1.2,0.6h-0.3c-0.2,0-0.3-0.9-0.2-1.1
	c-1.4-1.6-1.1-6.8-1-8.3c0.4-9.9-0.9-19.8-1.1-29.7c-0.1-5-0.1-9.9,0.6-14.8c1-5.5,1-10.8,0.9-16.3c-0.2-11,0.9-21.9,0.5-32.8
	c0-0.2,0.2-0.2,0.3-0.2l0.1-0.1c2.9-0.2,6.1-1.1,9.1-0.2c0.1,0,0.1,0.1,0.1,0.1l0.4,0.1h3.2c0.1,0,0.2,0.1,0.2,0.1
	c5.7,0.1,11.5-0.4,17.2-0.6c2-0.1,4.1,0,6-0.6c1-0.3,2.2-0.9,3.2-0.8c2.6,0.2,5.3,1,7.9,1.6c1.8,0.3,3-2.8,4.7-1.7
	c2.5,1.6,5.3,1,8.1,1.1c1.5,0.1,2.9-0.2,4.4-0.2c0.9,0,1.5,0.2,2.3,0.3c0.8-0.1,1.4-0.1,2.2,0.2c4.4,0.1,8.9-0.5,13.4-0.4
	c2.7,0.1,5.6,0.2,8.2-0.8c0.6-0.2,1.1-0.6,1.3-1.1c-0.1-0.2-0.2-0.4-0.3-0.6c-0.2-0.3-0.4-0.9-0.6-1.1c-2.9-1-6.1-0.6-9.2-0.9
	C90.7,7.5,86.6,8,82.5,8.3c-3.8,0.3-7.9,0.5-11.6,0.2C69.2,8.4,65,7.4,63,8.9c-0.2,0.1-0.3,0.1-0.5,0c-3.7-3-8.5,1.5-12.7,0.2
	c-2.5-0.8-4.8-1.3-7.5-1c-2.6,0.2-5.1,0.6-7.7,0.6c-5.7-0.1-11.4,0.3-17,0.1c-1.3-0.1-2.5-0.1-3.7-0.2c-1-0.1-2.3-0.6-3.3-0.2
	C9,8.9,8.8,9.5,8.9,10c0.4,0.3-1.1,2.3-1.1,3.3l-0.1,2.6c-0.1,3.9-0.3,7.4-1.2,11.2c-0.4,2-1.4,4.8-0.6,6.8c0.4,1.3,1.4,2.2,2,3.3
	c1,2.2,1.1,4.7,1,7.1L8.2,67C8,74.6,7.4,82,7.8,89.6c0.2,6.9,1.4,14.1,0.4,21c-0.3,2.3-3,6.4-0.4,8c1.5,0.9,3.3,1.1,5,1.3
	c4.2,0.2,8.5-0.2,12.7-0.6c1.6-0.2,3.1-0.5,4.7-0.5c1.2-0.1,2.3,0.1,3.4,0.5c1,0.3,2.5,1.1,3.7,1.1c0.1,0.1,1.8-0.1,2-0.5
	c1.6-0.6,2.9-1.2,5-0.9c1.9,0.3,3.7,0.6,5.7,0.2c1.1-0.2,2.6-0.3,3.7-0.1l0.4,0.3c0.4-0.2-0.2,0.5-0.6,0.6c-2.4,1-1.6,4-1.8,6
	c0,0.2-0.2,0.2-0.3,0.2c-1,0-2.3,0-2.8-1c-1.1-2-3.8-3.4-3.8,0.9c0,0.2-0.2,0.3-0.3,0.3c-0.2,0-0.3-0.1-0.3-0.3s-2.8-1.7-3-1.8
	c-1.4-0.8-2.9-1.6-4.5-1.1c-1,0.3-1.8,0.9-2.8,1.3c-1.7,2-3.4,4.2-5.9,2.9c-0.5-0.2-2.6-2-3-1.7c-0.5,0.6-1.2,1.3-2,1.6
	c-2.3,0.9-4.6,0.8-7,0.6c-0.1,0-0.3-0.1-0.3-0.3c-0.1-1-0.6-2.8-1.9-1.7c-0.3,0.2-0.5,0.5-0.9,0.9s-0.9,0.8-1.3,1
	c-1.6,0.6-6.4-0.2-7-1.3c-0.5-0.9-0.6-1.7-0.9-2.6c-0.3-2.3-0.1-4.8-0.2-7.2C3.3,110.8,2.9,105,2.4,99c-0.3-2.7-0.6-5.8-0.3-8.8
	c-0.2-2-0.1-4.7,0.9-6.5c0.9-1.4,0.2-2.6-0.9-3.7c-0.2-0.3-0.3-0.9-0.3-1.3C1.6,76.5,2,74.2,2.1,72c0.1-1.6,0.3-3.2,0.3-4.8
	c0-1.3-0.2-2.5-0.3-3.7C2,62.9,2,62.3,2.4,61.8C3.1,60.7,3,60.1,2.6,59c-0.9-2.3,0-5.1,0.1-7.5c0.2-2.8,0.3-5.6,0-8.5
	c-0.3-3.1-1-6.1-0.8-9.4c0.2-2.9,0.3-5.5,0.5-8.3C2.7,20,2.7,14.9,2.6,9.8V11c0,0-0.4-6.6,2.3-8.1C9.1,0.6,14.1,1,18.6,0.8
	c5.9-0.2,11.9,0.3,17.8,0.3c3.4,0,6.9-0.1,10.2-0.9c2.4-0.5,4.7-0.8,7.1-0.6c2.9,0.2,5.7,1,8.6,1.2s5.7,0.1,8.5-0.1
	c6.3-0.4,12.5-0.2,18.8,0l9.8,0.4c1.5,0.1,3.2,0.4,4.7,0.1l2.8-1c2-0.5,3.4-0.1,5.4,0.4l7.3,1.7c0.9-0.2,1.6-0.2,2.3,0.3
	c1.4,1.3,0.1,2.8,1.1,4.2c1.2,1.7,2.3,2.8,2.6,5c0.2,2.3,0.3,4.8-0.3,7.1c-0.5,1.5-1.2,3.1-0.5,4.7c0.3,1,1.1,1.9,1.3,3
	c0.5,2.3,0.5,4.5,0.3,6.8c-0.1,2.6-0.2,5.3-0.5,7.9c-0.2,1.7-0.9,3.3-1,5c-0.1,1.4,0.3,2.5,0.6,3.8c0.9,4.3-2.9,7-3.6,11
	c-0.3,2.2,2,1.2,3.1,2.5c0.6,0.9,0.3,2.2,0.2,3c-0.2,2.3,0.4,4.5,0.3,6.9c-0.1,2.9-1,5.3-0.3,8.1c0.3,1.6,0.6,3.2,0.3,4.8
	c-0.3,1.6-2.3,5.7,0.2,6.5c0.1,0,0.2,0.1,0.2,0.2c0,0.8-0.1,1.3-0.4,1.9c-1.1,2.5,0.6,2,1,3.7c0.3,1.5-0.5,2-0.9,3.4
	c-0.3,2.3,0.9,4,0.8,6.1c-0.1,2-1.2,3.2-0.9,5.1c0.1,0,0.2,0.1,0.2,0.2c0.2,1,0.3,2.2-0.1,3.1c-0.5,1.4-1.1,1.8,0.5,2.7
	C127.2,119.2,127.1,119.5,126.8,119.7L126.8,119.7z M99.5,50.2c-1-6.1-1.6-12.5-3.7-18.4c-0.9-2.5-1.3-5.2-4.2-5.6
	c-3.8-0.6-2.5,2.5-2,5.5c0.8,4.6,1.1,9.3,2.3,13.9c0.9,3.1,2.4,6.9-1.8,4.4c-7.1-4.2-9.5-13.5-12.3-20.4c-1.3-3.1-5-10.7-7.4-12.5
	c-1.2-0.9-7.1-2.2-8.3-1.4c-2.4,1.6,5.3,13.4,6.3,15.5C70.5,36,73,40.6,76,44.9c2.2,3,5.5,5.7,0.8,7.5c-5,1.8-7.3-0.9-10.7-3.4
	c-2.7-2-6-2.3-9.5-2.7c-9.2-1.1-18-0.1-25.3,6c-3.6,3-5.7,7-7.7,11.2c-0.5,1.1-3.6,10.3-3.1,10.3c-1.8-0.3-0.8-4.7-3.1-2.2
	c-2.2,2.3,0.6,8.7,1.6,11c2.2,5,4.4,9.9,6,15.2c1.7,5.3,2,5.2,6.9,5.6c6.1,0.5,12.2-1.3,18.2-2c0,0-10.7-6.7,10.5,0.6
	c4.7,1.6,9.7,1.2,14.7,1.4c3.4-0.9,3.7-6.9,5.4-9.7c0.6-1.1,4.1-6.4,5.2-6.8c1.5-0.5,3.7,1,5.2,1.2c8.8,1.4,11.5-5.9,10.1-12.9
	c-1.2-6.1-0.5-13,0.3-17.9C101.6,55.7,99.7,51.8,99.5,50.2L99.5,50.2z M60.1,125.4c-1-0.9-2.4-1.1-3.3-2c-0.5-0.5-0.6-1.1-0.5-1.7
	c0,0-0.1,0-0.1-0.1c-0.6-1.3,0.9-2.3,2-1.8c0.5,0.2,1.4,0.6,1.5,1.3c0.1,0.9-0.5,1.5-0.6,2.3c0.6,0.3,1.3,1.3,1.6,1.7
	C60.8,125.3,60.4,125.7,60.1,125.4L60.1,125.4z"/>
</svg>
