<?xml version="1.0" encoding="utf-8"?>
<!-- Generator: Adobe Illustrator 19.2.0, SVG Export Plug-In . SVG Version: 6.00 Build 0)  -->
<svg version="1.1" id="Layer_1" xmlns="http://www.w3.org/2000/svg" xmlns:xlink="http://www.w3.org/1999/xlink" x="0px" y="0px"
	 viewBox="0 0 128 128" style="enable-background:new 0 0 128 128;" xml:space="preserve">
<style type="text/css">
	.st0{fill:#8BC6F7;}
</style>
<path class="st0" d="M27.3,75.7c-6.3,0-9.4-3.9-10.6-7.9c1.4,6.5,8.8,12.9,32.1,15.8c22.1,2.7,36.4-4.1,41.3-7.2
	c0,0,3.3-1.4,1.3,0.8c0,0-13.9,12.8-41.1,13c-27.4,0.1-49-13.6-48.9-27.5C1.3,48.8,22.9,35,50.2,35.2c27.3,0.1,41.1,13,41.1,13
	c2,2.2-1.3,0.8-1.3,0.8c-4.8-3.1-19.2-9.3-41.3-7.2c-21.8,2.1-28.8,9.5-31.2,14.5c-0.9,1.9-1.3,3.7-1.4,5.5
	c0.6-4.7,3.5-10.4,11.2-10.4c8.6,0,11.3,7.2,11.3,12.2C38.5,68.6,35.9,75.7,27.3,75.7L27.3,75.7z M115.1,70.9h11.5v4.2h-16.3V52h4.8
	L115.1,70.9L115.1,70.9z M97.3,62.7h9.7v12.5h-3.2l-0.5-2.9c-1.2,1.4-3,3.5-7.2,3.5c-5.6,0-10.6-4-10.6-12.1
	c0-6.3,3.5-12.3,11.3-12.2c7.1,0,9.9,4.6,10.2,7.8h-4.8c0-0.9-1.6-3.8-5.1-3.8c-3.4,0-6.6,2.4-6.6,8.3c0,6.3,3.4,8,6.7,8
	c1.1,0,4.6-0.4,5.6-5.1h-5.4L97.3,62.7L97.3,62.7z M27.3,54.2c-5,0-8.1,4-8.1,9.4s3,9.4,8.1,9.4c5,0,8.1-4,8.1-9.4
	C35.3,58.1,32.3,54.2,27.3,54.2z M40.3,60.4h2.3v2.1h0.1c0.6-0.8,1.7-2.5,4.4-2.5c3.9,0,6.7,3.3,6.7,7.5c0,3.5-2,8.2-7.1,8.2
	c-2,0-3.3-0.9-3.9-2h-0.1v7.4h-2.5L40.3,60.4L40.3,60.4z M46.6,73.4c2.7,0,4.6-2.4,4.6-5.6c0-1.9-0.8-5.7-4.6-5.7
	c-3.6,0-4,3.9-4,6.3C42.5,72.4,45,73.4,46.6,73.4L46.6,73.4z M68.9,70.5c-0.1,0.7-0.8,2.8-2.6,4c-0.7,0.5-1.6,1-4,1
	c-4.2,0-6.6-3.1-6.6-7.4c0-4.6,2.2-8.2,7.1-8.2c4.3,0,6.4,3.4,6.4,8.6H58.3c0,3.1,1.4,4.9,4.3,4.9c2.3,0,3.7-1.8,3.8-2.9H68.9
	L68.9,70.5z M66.3,66.6c-0.1-2.3-1.1-4.4-4.1-4.4c-2.3,0-4.1,2.1-4.1,4.4H66.3L66.3,66.6z M82.9,75.2h-2.5v-9.1
	c0-2.6-0.7-3.9-3.2-3.9c-1.4,0-3.9,0.9-3.9,4.9v8.1h-2.5V60.4h2.3v2.1h0.1c0.5-0.8,1.9-2.5,4.5-2.5c2.3,0,5.2,0.9,5.2,5.2V75.2"/>
</svg>
