<?xml version="1.0" encoding="utf-8"?>
<!-- Generator: Adobe Illustrator 19.2.0, SVG Export Plug-In . SVG Version: 6.00 Build 0)  -->
<svg version="1.1" id="Layer_1" xmlns="http://www.w3.org/2000/svg" xmlns:xlink="http://www.w3.org/1999/xlink" x="0px" y="0px"
	 viewBox="0 0 128 128" style="enable-background:new 0 0 128 128;" xml:space="preserve">
<style type="text/css">
	.st0{fill:#E5D573;}
</style>
<g id="text12-4">
</g>
<path class="st0" d="M64,0.5c-29.3,0-53,23.7-53,53c0,29.2,23.7,53,53,53c29.3,0,53-23.7,53-53C117,24.2,93.3,0.5,64,0.5z M64,93.7
	c-22.2,0-40.2-18-40.2-40.2c0-22.2,18-40.2,40.2-40.2c22.2,0,40.2,18,40.2,40.2C104.2,75.6,86.2,93.7,64,93.7z M64,35.8
	c-9.7,0-17.7,7.9-17.7,17.6c0,9.7,7.9,17.7,17.7,17.7s17.7-7.9,17.7-17.7C81.7,43.7,73.7,35.8,64,35.8z M64,18.2
	c-19.5,0-35.3,15.8-35.3,35.3S44.5,88.8,64,88.8S99.3,73,99.3,53.5S83.5,18.2,64,18.2z M64,76c-12.4,0-22.6-10.1-22.6-22.6
	C41.4,41,51.6,30.9,64,30.9c12.4,0,22.6,10.1,22.6,22.6C86.6,65.9,76.4,76,64,76z M96.4,120.2l-13.7-5.9v3.9H55.6l-5.6-5.6
	c-0.4-0.4-1-0.4-1.4,0c-0.4,0.4-0.4,1,0,1.4l4.2,4.2h-2.1l-5.6-5.6c-0.4-0.4-1-0.4-1.4,0c-0.4,0.4-0.4,1,0,1.4l4.2,4.2h-2.1
	l-5.6-5.6c-0.4-0.4-1-0.4-1.4,0c-0.4,0.4-0.4,1,0,1.4l4.2,4.2h-2.1l-5.6-5.6c-0.4-0.4-1-0.4-1.4,0c-0.4,0.4-0.4,1,0,1.4l4.2,4.2
	h-4.5c-1.1,0-2,1.1-2,2c0,0.8,0.9,2,2,2h4.5l-4.2,4.2c-0.4,0.4-0.4,1,0,1.4s1,0.4,1.4,0l5.6-5.6H43l-4.2,4.2c-0.4,0.4-0.4,1,0,1.4
	s1,0.4,1.4,0l5.6-5.6h2.1l-4.2,4.2c-0.4,0.4-0.4,1,0,1.4c0.4,0.4,1,0.4,1.4,0l5.6-5.6h2.1l-4.2,4.2c-0.4,0.4-0.4,1,0,1.4
	c0.4,0.4,1,0.4,1.4,0l5.6-5.6h27.1v3.9L96.4,120.2z"/>
</svg>
