<?xml version="1.0" encoding="UTF-8" standalone="no"?>
<!-- Created with Inkscape (http://www.inkscape.org/) -->

<svg
   xmlns:dc="http://purl.org/dc/elements/1.1/"
   xmlns:cc="http://creativecommons.org/ns#"
   xmlns:rdf="http://www.w3.org/1999/02/22-rdf-syntax-ns#"
   xmlns:svg="http://www.w3.org/2000/svg"
   xmlns="http://www.w3.org/2000/svg"
   xmlns:sodipodi="http://sodipodi.sourceforge.net/DTD/sodipodi-0.dtd"
   xmlns:inkscape="http://www.inkscape.org/namespaces/inkscape"
   width="321.75699"
   height="321.75699"
   viewBox="0 0 321.75699 321.75699"
   id="svg2"
   version="1.1"
   inkscape:version="0.91 r13725"
   sodipodi:docname="drawing.svg">
  <defs
     id="defs4" />
  <sodipodi:namedview
     id="base"
     pagecolor="#ffffff"
     bordercolor="#666666"
     borderopacity="1.0"
     inkscape:pageopacity="0.0"
     inkscape:pageshadow="2"
     inkscape:zoom="0.98994949"
     inkscape:cx="48.021529"
     inkscape:cy="158.81689"
     inkscape:document-units="px"
     inkscape:current-layer="layer1"
     showgrid="false"
     units="px"
     width="128mm"
     inkscape:window-width="1920"
     inkscape:window-height="1017"
     inkscape:window-x="-8"
     inkscape:window-y="-8"
     inkscape:window-maximized="1" />
  <metadata
     id="metadata7">
    <rdf:RDF>
      <cc:Work
         rdf:about="">
        <dc:format>image/svg+xml</dc:format>
        <dc:type
           rdf:resource="http://purl.org/dc/dcmitype/StillImage" />
        <dc:title></dc:title>
      </cc:Work>
    </rdf:RDF>
  </metadata>
  <g
     inkscape:label="Layer 1"
     inkscape:groupmode="layer"
     id="layer1"
     transform="translate(0,-730.6052)">
    <path
       style="fill:#9b70d7"
       d="m 152.69218,1051.3856 c -5.31093,-1.5353 -125.31525,-71.01842 -128.731846,-74.53638 -6.68888,-6.88732 -6.63607,-6.19336 -6.57557,-86.41499 0.0531,-70.39287 0.10419,-72.2653 2.09884,-76.90199 2.9271,-6.80422 7.623346,-10.81976 22.920826,-19.59852 7.425,-4.26099 25.200004,-14.47751 39.500004,-22.70337 74.397296,-42.79594 69.401666,-40.13467 76.145586,-40.56409 3.38612,-0.21561 7.82631,0.15904 9.86709,0.83255 2.04078,0.67351 26.49779,14.27125 54.34892,30.21718 27.85112,15.94593 54.6884,31.28454 59.6384,34.08577 4.95,2.80124 11.20343,7.1406 13.89651,9.64302 9.13877,8.49176 8.55658,2.7508 8.58153,84.62171 0.0193,63.44101 -0.16939,72.63345 -1.57591,76.76136 -3.27315,9.60617 -5.37633,11.05022 -70.89827,48.67905 -33.54788,19.2663 -62.57288,35.4677 -64.5,36.0031 -4.2519,1.1813 -10.37872,1.1295 -14.71611,-0.1244 z m 28.21225,-68.58505 c 8.74045,-1.89974 19.90624,-6.43124 28.9152,-11.73488 8.24771,-4.8555 22.82648,-18.37166 28.14438,-26.09302 3.29296,-4.78123 3.61654,-5.72201 2.37624,-6.90867 -1.46552,-1.40213 -33.61214,-20.12417 -36.37376,-21.18391 -1.00654,-0.38624 -3.83529,1.80544 -8.36453,6.48074 -24.94982,25.75439 -66.28214,18.51046 -79.07314,-13.85842 -4.16189,-10.53206 -4.96995,-19.11594 -2.74053,-29.11198 7.53036,-33.76379 47.60056,-48.29622 75.44789,-27.36301 3.21514,2.41686 7.10448,6.21071 8.64298,8.43076 1.5385,2.22006 3.21107,4.03647 3.71682,4.03647 0.50575,0 9.66955,-5.04451 20.364,-11.21002 13.09459,-7.54923 19.44445,-11.75864 19.44445,-12.88999 0,-2.59186 -7.91495,-12.69185 -15.59479,-19.89999 -11.77182,-11.04877 -24.88547,-18.5188 -40.47248,-23.05465 -11.28796,-3.28481 -33.3207,-3.81489 -45.60495,-1.0972 -57.711616,12.76778 -90.31822,73.8923 -68.493186,128.39772 3.82194,9.54486 12.444186,22.01928 21.659996,31.33706 22.80164,23.05396 55.84672,32.71266 88.00541,25.72299 z m 43.26406,-71.80592 c 0.6817,-7.74492 1.26833,-9.29131 3.76215,-9.91722 1.36058,-0.34149 3.63683,-0.32898 5.05833,0.0278 2.47695,0.62167 2.57062,0.90347 2.25,6.76905 -0.31713,5.80181 -0.2103,6.13794 2.05237,6.45786 2.94605,0.41655 4.07789,-1.24227 4.09778,-6.0057 0.0226,-5.40153 0.83456,-6.70726 4.61186,-7.41588 2.68091,-0.50294 3.40345,-1.11907 3.40345,-2.9022 0,-1.71523 -0.72687,-2.40908 -3,-2.86371 -2.83592,-0.56718 -3,-0.86389 -3,-5.425 0,-5.54373 1.22551,-7.225 5.26642,-7.225 2.53705,0 2.83007,-0.316 2.55,-2.75 -0.24853,-2.15997 -0.90645,-2.81789 -3.06642,-3.06642 -2.65929,-0.30599 -2.75,-0.51435 -2.75,-6.31642 0,-5.93087 -0.0311,-5.99636 -2.7017,-5.68358 -2.41622,0.28299 -2.81247,0.89758 -3.75,5.81642 l -1.0483,5.5 -4.5,0 -4.5,0 -0.30174,-5.81143 c -0.29372,-5.65713 -0.37318,-5.80316 -2.99269,-5.5 -2.39743,0.27746 -2.76665,0.84446 -3.38491,5.19808 -0.78865,5.55347 -1.32739,6.31103 -4.82066,6.77867 -1.86114,0.24916 -2.57908,1.01899 -2.80946,3.01252 -0.26376,2.28241 0.10541,2.72541 2.5,3 2.69332,0.30884 2.80755,0.54187 2.76326,5.63719 -0.0491,5.64815 -1.13332,7.14195 -5.2038,7.16966 -1.70942,0.0116 -2.25,0.59686 -2.25,2.43585 0,1.87641 0.6744,2.56867 3,3.07946 2.95731,0.64953 3,0.75123 3,7.14588 0,6.48673 1e-4,6.48695 2.75,6.17054 2.2455,-0.25837 2.79844,-0.86678 3.01406,-3.31642 z m 3.48594,-16.16228 c -1.65243,-0.66677 -1.6235,-8.44468 0.0399,-10.71948 0.94253,-1.28899 2.35631,-1.67707 5.25,-1.44113 l 3.9601,0.32289 -0.0462,5.31503 c -0.0306,3.52021 -0.53713,5.62558 -1.5,6.23469 -1.5427,0.97589 -5.62116,1.12836 -7.7038,0.288 z"
       id="path4153"
       inkscape:connector-curvature="0" />
  </g>
</svg>
