<?xml version="1.0" encoding="utf-8"?>
<!-- Generator: Adobe Illustrator 19.2.0, SVG Export Plug-In . SVG Version: 6.00 Build 0)  -->
<svg version="1.1" id="Layer_1" xmlns="http://www.w3.org/2000/svg" xmlns:xlink="http://www.w3.org/1999/xlink" x="0px" y="0px"
	 viewBox="0 0 283.5 283.5" style="enable-background:new 0 0 283.5 283.5;" xml:space="preserve">
<style type="text/css">
	.st0{display:none;}
	.st1{display:inline;}
	.st2{fill:none;stroke:#2CBBAB;stroke-width:9;stroke-linecap:round;stroke-miterlimit:10;}
	.st3{display:inline;fill:#2CBBAB;}
	.st4{fill:#2CBBAB;}
	.st5{fill:#FFFFFF;}
	.st6{display:inline;fill:none;stroke:#FFFFFF;stroke-width:8;stroke-linejoin:round;stroke-miterlimit:10;}
	.st7{display:inline;fill:#FFFFFF;}
	.st8{fill:none;}
	.st9{fill:none;stroke:#FFFFFF;stroke-width:8;stroke-linecap:round;stroke-linejoin:round;stroke-miterlimit:10;}
	.st10{fill:#FFFFFF;stroke:#FFFFFF;stroke-width:10;stroke-linejoin:round;stroke-miterlimit:10;}
	.st11{fill:none;stroke:#FFFFFF;stroke-width:10;stroke-linecap:round;stroke-linejoin:round;stroke-miterlimit:10;}
</style>
<g id="Layer_1_1_" class="st0">
	
		<image style="display:inline;overflow:visible;enable-background:new    ;" width="945" height="630" xlink:href="B2E748B6.jpeg"  transform="matrix(0.2316 0 0 0.4719 32.3092 30.6792)">
	</image>
	<g class="st1">
		<path class="st2" d="M56.4,120c0,0,16.3-8.8,44.5-30.4c24.4-18.6,50.2-44.5,57.7-37c11.6,11.6-58,67.4-58,67.4"/>
		<path class="st2" d="M113,138.9c0,0,3-6.1,9-11.8c10.6-10.1,17.4-23.1,4.4-28.6"/>
		<path class="st2" d="M121.2,161.3c0,0,1.3-5.4,6.1-12.2c7.7-11.1,18.2-26.2,2-30.5"/>
		<path class="st2" d="M27.7,254.9c0,0,32-33,45.7-43.4c15-11.4,38.6-16.1,51.4-28.3c18.4-17.4,21.7-40.5,6.1-39.3"/>
		<path class="st2" d="M-14.5,212.7c0,0,29-29.3,34.6-46.9c6.6-20.6,5.1-43.8,11.1-51.1c5.1-6.3,32.9-57.4,32.9-57.4
			s31.9-7.5-1.5,57.4"/>
	</g>
	<circle class="st3" cx="141.7" cy="141.7" r="141.7"/>
	<g class="st1">
		<rect x="46.7" y="78.7" class="st4" width="190" height="126"/>
		<path class="st5" d="M236.7,208.7h-190c-2.2,0-4-1.8-4-4v-126c0-2.2,1.8-4,4-4h190c2.2,0,4,1.8,4,4v126
			C240.7,206.9,238.9,208.7,236.7,208.7z M50.7,200.7h182v-118h-182C50.7,82.7,50.7,200.7,50.7,200.7z"/>
	</g>
	<line class="st6" x1="46.7" y1="102" x2="236.7" y2="102"/>
	<path class="st7" d="M115,188H69.7c-2.2,0-4-1.8-4-4v-60.7c0-2.2,1.8-4,4-4H115c2.2,0,4,1.8,4,4V184C119,186.2,117.2,188,115,188z
		 M73.7,180H111v-52.7H73.7V180z"/>
	<g class="st1">
		<line class="st8" x1="141.7" y1="123.3" x2="211" y2="123.3"/>
		<path class="st5" d="M211,127.3h-69.3c-2.2,0-4-1.8-4-4s1.8-4,4-4H211c2.2,0,4,1.8,4,4S213.2,127.3,211,127.3z"/>
	</g>
	<g class="st1">
		<line class="st8" x1="141.7" y1="143.3" x2="211" y2="143.3"/>
		<path class="st5" d="M211,147.3h-69.3c-2.2,0-4-1.8-4-4s1.8-4,4-4H211c2.2,0,4,1.8,4,4S213.2,147.3,211,147.3z"/>
	</g>
	<g class="st1">
		<line class="st8" x1="141.7" y1="163.3" x2="211" y2="163.3"/>
		<path class="st5" d="M211,167.3h-69.3c-2.2,0-4-1.8-4-4s1.8-4,4-4H211c2.2,0,4,1.8,4,4S213.2,167.3,211,167.3z"/>
	</g>
	<g class="st1">
		<line class="st8" x1="141.7" y1="183.3" x2="211" y2="183.3"/>
		<path class="st5" d="M211,187.3h-69.3c-2.2,0-4-1.8-4-4s1.8-4,4-4H211c2.2,0,4,1.8,4,4S213.2,187.3,211,187.3z"/>
	</g>
	<rect x="46.7" y="78.7" class="st7" width="190" height="26.9"/>
	<circle class="st3" cx="226" cy="90.3" r="6"/>
	<circle class="st3" cx="206" cy="90.3" r="6"/>
	<circle class="st3" cx="186" cy="90.3" r="6"/>
</g>
<circle class="st4" cx="141.7" cy="141.7" r="141.7"/>
<g id="Layer_1_copy_2" class="st0">
	<circle class="st7" cx="141.7" cy="141.8" r="141.7"/>
	<g class="st1">
		<g>
			<rect x="50.7" y="82.8" class="st4" width="182" height="118"/>
			<path class="st4" d="M141.7,0.1C63.5,0.1,0,63.6,0,141.8s63.5,141.7,141.7,141.7s141.8-63.4,141.8-141.7S220,0.1,141.7,0.1z
				 M240.7,204.8c0,2.2-1.8,4-4,4h-190c-2.2,0-4-1.8-4-4v-126c0-2.2,1.8-4,4-4h190c2.2,0,4,1.8,4,4V204.8z"/>
		</g>
		<g>
			<path class="st5" d="M115,119.4H69.7c-2.2,0-4,1.8-4,4v60.7c0,2.2,1.8,4,4,4H115c2.2,0,4-1.8,4-4v-60.7
				C119,121.2,117.2,119.4,115,119.4z M111,180.1H73.7v-52.7H111V180.1z"/>
			<path class="st5" d="M141.7,119.4c-2.2,0-4,1.8-4,4s1.8,4,4,4H211c2.2,0,4-1.8,4-4s-1.8-4-4-4"/>
			<path class="st5" d="M211,139.4h-69.3c-2.2,0-4,1.8-4,4s1.8,4,4,4H211c2.2,0,4-1.8,4-4S213.2,139.4,211,139.4z"/>
			<path class="st5" d="M211,159.4h-69.3c-2.2,0-4,1.8-4,4s1.8,4,4,4H211c2.2,0,4-1.8,4-4S213.2,159.4,211,159.4z"/>
			<path class="st5" d="M211,179.4h-69.3c-2.2,0-4,1.8-4,4s1.8,4,4,4H211c2.2,0,4-1.8,4-4S213.2,179.4,211,179.4z"/>
			<rect x="46.7" y="78.8" class="st5" width="190" height="26.9"/>
		</g>
	</g>
	<circle class="st3" cx="226" cy="90.4" r="6"/>
	<circle class="st3" cx="206" cy="90.4" r="6"/>
	<circle class="st3" cx="186" cy="90.4" r="6"/>
</g>
<polyline class="st9" points="46.7,78.8 46.7,204 236.7,204 "/>
<rect x="102.4" y="169.6" class="st10" width="30.9" height="18.4"/>
<rect x="150.1" y="151.3" class="st10" width="30.9" height="36.7"/>
<rect x="197.9" y="157.1" class="st10" width="30.9" height="30.9"/>
<polyline class="st11" points="210.4,81 230.8,78.8 193,121 160,106.5 135.5,138.3 105.5,121.5 68,169 "/>
<line class="st11" x1="232.8" y1="98" x2="230.8" y2="78.8"/>
</svg>
