<?xml version="1.0" encoding="utf-8"?>
<!-- Generator: Adobe Illustrator 19.2.0, SVG Export Plug-In . SVG Version: 6.00 Build 0)  -->
<svg version="1.1" id="Layer_1" xmlns="http://www.w3.org/2000/svg" xmlns:xlink="http://www.w3.org/1999/xlink" x="0px" y="0px"
	 viewBox="0 0 128 128" style="enable-background:new 0 0 128 128;" xml:space="preserve">
<style type="text/css">
	.st0{fill:#F45B63;}
</style>
<path class="st0" d="M47.6,98.1c-19.2,5.4,11.7,16.4,36.1,6c-4-1.6-6.9-3.4-6.9-3.4c-10.9,2.1-16,2.2-25.8,1.1
	C42.8,100.9,47.6,98.1,47.6,98.1z M80.8,87.7c-14.4,2.8-22.8,2.7-33.4,1.6c-8.2-0.8-2.8-4.8-2.8-4.8c-21.1,7,11.8,15,41.3,6.3
	C82.8,89.7,80.8,87.7,80.8,87.7z M92.1,27.1c0,0-42.7,10.7-22.3,34.2c6,6.9-1.6,13.2-1.6,13.2s15.3-7.9,8.3-17.8
	C69.9,47.5,64.9,42.9,92.1,27.1z M102.1,108.2c0,0,3.5,2.9-3.9,5.2c-14.1,4.3-58.7,5.6-71.1,0.2c-4.5-1.9,3.9-4.6,6.5-5.2
	c2.7-0.6,4.3-0.5,4.3-0.5c-5-3.5-32,6.8-13.7,9.8C74,125.8,115,114.1,102.1,108.2z M85,77.9c2.4-1.6,5.7-3.1,5.7-3.1
	s-9.4,1.7-18.8,2.5c-11.5,1-23.8,1.2-30,0.3c-14.7-2,8-7.3,8-7.3s-8.8-0.6-19.6,4.6C17.5,81.1,62,84,85,77.9z M90.6,93
	c-0.1,0.3-0.5,0.6-0.5,0.6c31.3-8.2,19.8-29,4.8-23.7c-1.3,0.5-2,1.5-2,1.5s0.8-0.3,2.7-0.7C103.2,69.2,114,80.9,90.6,93z
	 M64.2,70.1c-4.6-10.4-20.3-19.6,0-35.6C89.5,14.6,76.5,1.6,76.5,1.6c5.2,20.6-18.5,26.8-27,39.7C43.7,50,52.4,59.4,64.2,70.1z
	 M91.5,121.8c-19.2,3.6-42.9,3.2-56.9,0.9c0,0,2.9,2.4,17.6,3.3c22.5,1.4,57-0.8,57.8-11.4C110,114.6,108.5,118.6,91.5,121.8z"/>
</svg>
