<?xml version="1.0" encoding="utf-8"?>
<!-- Generator: Adobe Illustrator 19.2.0, SVG Export Plug-In . SVG Version: 6.00 Build 0)  -->
<svg version="1.1" id="Layer_1" xmlns="http://www.w3.org/2000/svg" xmlns:xlink="http://www.w3.org/1999/xlink" x="0px" y="0px"
	 viewBox="0 0 128 128" style="enable-background:new 0 0 128 128;" xml:space="preserve">
<style type="text/css">
	.st0{display:none;fill:#D5CEEF;}
	.st1{display:none;fill:#FFFFFF;}
	.st2{fill:#C6BDEF;}
</style>
<path class="st0" d="M116.5,109.7L116.5,109.7c0-0.1-15.1-25.2-16.4-26.5c-0.3-0.3-0.6-0.6-0.9-0.8c-2.1-1.7-4.6-1.9-7.9-3
	c6.1-1,11.7-3.4,14.9-7.9c0.7-1,1.4-2.2,1.8-3.5c1-3,1.5-6.4,1.2-9.7c-0.3-3.7-1.5-7.2-3.9-10c-1-1.1-2-2-3.1-2.9
	c-3.2-2.5-7.2-3.9-14.8-3.9l0,0c-0.5-0.1-0.6-0.1-0.6,0H49.7v68.1h20.2c0,0,0-16.1,0-26.2c5,0,7.5-1.2,11.2,5
	c4.5,7.9,10.3,18.9,11.3,20.9c0.1,0.2,0.2,0.3,0.2,0.3L116.5,109.7L116.5,109.7z M88.8,61.8c0,3.2-2.5,6.3-5.7,6.3H69.9V55.5h13.2
	c1.2,0,2.3,0.4,3.2,1.2C87.8,57.8,88.8,59.8,88.8,61.8z"/>
<path class="st1" d="M115.2,114.7H89.5l-1.5-3.1c-1.6-2.9-7-13.1-11.3-20.6c-0.9-1.4-1.4-2.1-1.9-2.3v26.1H44.7V45.6l41.4-7
	c0.3-0.1,0.6-2.1,0.9-2.1s0.6,2,1,2.1c7.9,0.1,13,6.5,17.4,10c1.2,0.9,2.3-3,3.6-1.6l0.1,5.1c3,3.5,4.8,1,5.1,6
	c0.3,3.9-0.2,7.9-1.5,11.7c-0.6,1.7-1.5,3.3-2.5,4.8c-1.6,2.3-3.7,4.2-6.2,5.7c0.9,1.2,4,5.8,16.7,26.9l10,16.6L115.2,114.7z
	 M83.1,63.1c0.1-0.1,0.7-0.6,0.7-1.3c0-0.4-0.3-1-0.6-1.2c-0.1,0-0.1-0.1-0.1-0.1h-8.2v2.6H83.1z"/>
<g>
	<path class="st2" d="M46.7,83.4c-7.6-3.5-13.4-8.4-16.3-14c-0.2-0.4-0.4-0.8-0.5-1.2c0,0,0-0.1-0.1-0.1c-0.9-2.2-1.4-4.4-1.4-6.7
		c0-13.3,13.7-24.6,34.2-27c2.6-0.3,5.4-0.5,8.3-0.5c0.7,0,1.4,0,2.1,0c0.2,0,0.5,0,0.7,0c0.5,0,1,0,1.5,0.1c0.3,0,0.5,0,0.8,0
		c0.5,0,0.9,0.1,1.4,0.1c0.3,0,0.5,0,0.8,0.1c0.5,0,1,0.1,1.5,0.2c0.2,0,0.4,0,0.6,0.1c0.7,0.1,1.3,0.2,2,0.3c0.3,0,0.5,0.1,0.8,0.1
		c0.4,0.1,0.9,0.1,1.3,0.2c0.3,0.1,0.6,0.1,0.9,0.2c0.4,0.1,0.7,0.1,1.1,0.2c0.3,0.1,0.7,0.1,1,0.2c0.3,0.1,0.7,0.1,1,0.2
		c0.3,0.1,0.7,0.2,1,0.2c0.3,0.1,0.5,0.1,0.8,0.2c0.8,0.2,1.5,0.4,2.3,0.6c0.2,0.1,0.4,0.1,0.5,0.2c0.4,0.1,0.8,0.3,1.2,0.4
		c0.2,0.1,0.4,0.1,0.5,0.2c0.4,0.1,0.8,0.3,1.3,0.4c0.1,0.1,0.3,0.1,0.4,0.2c0.5,0.2,0.9,0.3,1.4,0.5l0,0c9,3.5,16.1,8.6,19.6,14.6
		c0.6,1,1.3,2.5,1.8,4.1c0.3,1.2,0.5,2.5,0.5,3.8c0,8-6,15.2-15.3,20.3l0,0c0,0,0,0-0.1,0c-0.3,0.2-0.7,0.3-1,0.5
		c0.7,1,1.7,2.5,3.1,4.7c10.6-7.2,17.2-17,17.2-28c0-12.7-8.7-23.7-22.1-31c-10.4-5.7-23.7-9-37.9-9c-32.5,0-60,17.5-60,40l0,0l0,0
		c0,17.5,18.6,33.3,43.3,38.3V83.4H46.7z"/>
	<path class="st2" d="M78.5,90c-0.3-0.5-0.6-0.9-0.8-1.3c-1.4,0.1-2.9,0.1-4.3,0.1c-0.2,0-0.3,0-0.5,0v9.5c3.2-0.3,6.4-0.9,9.4-1.5
		C81,94.5,79.7,92.1,78.5,90z"/>
</g>
<path class="st1" d="M116,111.7H91.4l-0.7-1.4c-1.1-2.1-6.8-12.9-11.3-20.8c-2.4-4.1-4-4.1-5.7-4.1c-0.5,0-1,0-1.6,0
	c-0.1,0-0.1,0-0.2,0v26.2H47.7v-72h38.7c0.2-0.1,0.4-0.1,0.6-0.1s0.4,0,0.7,0.1c7.3,0,11.9,1.3,15.9,4.4c1,0.8,2.1,1.8,3.3,3.1
	c2.6,3,4.1,6.9,4.4,11.2c0.3,3.5-0.2,7.1-1.3,10.5c-0.5,1.5-1.2,2.8-2.1,4c-2.1,3-5.3,5.3-9.4,6.9c0.7,0.3,1.3,0.7,2,1.2
	c0.4,0.3,0.8,0.7,1.1,1c1.2,1.2,12,19.2,16.6,26.8l4,6.6L116,111.7z M83.1,66.1c1.9,0,3.7-2.1,3.7-4.3c0-1.3-0.7-2.7-1.7-3.6
	c-0.4-0.3-1.1-0.7-1.9-0.7H71.9v8.6H83.1z"/>
<path class="st2" d="M116.5,109.7L116.5,109.7c0-0.1-15.1-25.2-16.4-26.5c-0.3-0.3-0.6-0.6-0.9-0.8c-2.1-1.7-4.6-1.9-7.9-3
	c6.1-1,11.7-3.4,14.9-7.9c0.7-1,1.4-2.2,1.8-3.5c1-3,1.5-6.4,1.2-9.7c-0.3-3.7-1.5-7.2-3.9-10c-1-1.1-2-2-3.1-2.9
	c-3.2-2.5-7.2-3.9-14.8-3.9l0,0c-0.5-0.1-0.6-0.1-0.6,0H49.7v68.1h20.2c0,0,0-16.1,0-26.2c5,0,7.5-1.2,11.2,5
	c4.5,7.9,10.3,18.9,11.3,20.9c0.1,0.2,0.2,0.3,0.2,0.3L116.5,109.7L116.5,109.7z M88.8,61.8c0,3.2-2.5,6.3-5.7,6.3H69.9V55.5h13.2
	c1.2,0,2.3,0.4,3.2,1.2C87.8,57.8,88.8,59.8,88.8,61.8z"/>
</svg>
