<?xml version="1.0" encoding="utf-8"?>
<!-- Generator: Adobe Illustrator 19.2.0, SVG Export Plug-In . SVG Version: 6.00 Build 0)  -->
<svg version="1.1" id="Layer_1" xmlns="http://www.w3.org/2000/svg" xmlns:xlink="http://www.w3.org/1999/xlink" x="0px" y="0px"
	 viewBox="0 0 283.5 283.5" style="enable-background:new 0 0 283.5 283.5;" xml:space="preserve">
<style type="text/css">
	.st0{display:none;}
	.st1{display:inline;}
	.st2{fill:none;stroke:#2CBBAB;stroke-width:9;stroke-linecap:round;stroke-miterlimit:10;}
	.st3{display:inline;fill:#2CBBAB;}
	.st4{fill:#2CBBAB;}
	.st5{fill:#FFFFFF;}
	.st6{display:inline;fill:none;stroke:#FFFFFF;stroke-width:8;stroke-linejoin:round;stroke-miterlimit:10;}
	.st7{display:inline;fill:#FFFFFF;}
	.st8{fill:none;}
	.st9{clip-path:url(#SVGID_2_);}
	.st10{fill:#2BBBAB;}
</style>
<g id="Layer_1_1_" class="st0">
	
		<image style="display:inline;overflow:visible;enable-background:new    ;" width="945" height="630" xlink:href="11E42D76.jpeg"  transform="matrix(0.2316 0 0 0.4719 32.3092 30.6792)">
	</image>
	<g class="st1">
		<path class="st2" d="M56.4,120c0,0,16.3-8.8,44.5-30.4c24.4-18.6,50.2-44.5,57.7-37c11.6,11.6-58,67.4-58,67.4"/>
		<path class="st2" d="M113,138.9c0,0,3-6.1,9-11.8c10.6-10.1,17.4-23.1,4.4-28.6"/>
		<path class="st2" d="M121.2,161.3c0,0,1.3-5.4,6.1-12.2c7.7-11.1,18.2-26.2,2-30.5"/>
		<path class="st2" d="M27.7,254.9c0,0,32-33,45.7-43.4c15-11.4,38.6-16.1,51.4-28.3c18.4-17.4,21.7-40.5,6.1-39.3"/>
		<path class="st2" d="M-14.5,212.7c0,0,29-29.3,34.6-46.9c6.6-20.6,5.1-43.8,11.1-51.1c5.1-6.3,32.9-57.4,32.9-57.4
			s31.9-7.5-1.5,57.4"/>
	</g>
	<circle class="st3" cx="141.7" cy="141.7" r="141.7"/>
	<g class="st1">
		<rect x="46.7" y="78.7" class="st4" width="190" height="126"/>
		<path class="st5" d="M236.7,208.7h-190c-2.2,0-4-1.8-4-4v-126c0-2.2,1.8-4,4-4h190c2.2,0,4,1.8,4,4v126
			C240.7,206.9,238.9,208.7,236.7,208.7z M50.7,200.7h182v-118h-182C50.7,82.7,50.7,200.7,50.7,200.7z"/>
	</g>
	<line class="st6" x1="46.7" y1="102" x2="236.7" y2="102"/>
	<path class="st7" d="M115,188H69.7c-2.2,0-4-1.8-4-4v-60.7c0-2.2,1.8-4,4-4H115c2.2,0,4,1.8,4,4V184C119,186.2,117.2,188,115,188z
		 M73.7,180H111v-52.7H73.7V180z"/>
	<g class="st1">
		<line class="st8" x1="141.7" y1="123.3" x2="211" y2="123.3"/>
		<path class="st5" d="M211,127.3h-69.3c-2.2,0-4-1.8-4-4s1.8-4,4-4H211c2.2,0,4,1.8,4,4S213.2,127.3,211,127.3z"/>
	</g>
	<g class="st1">
		<line class="st8" x1="141.7" y1="143.3" x2="211" y2="143.3"/>
		<path class="st5" d="M211,147.3h-69.3c-2.2,0-4-1.8-4-4s1.8-4,4-4H211c2.2,0,4,1.8,4,4S213.2,147.3,211,147.3z"/>
	</g>
	<g class="st1">
		<line class="st8" x1="141.7" y1="163.3" x2="211" y2="163.3"/>
		<path class="st5" d="M211,167.3h-69.3c-2.2,0-4-1.8-4-4s1.8-4,4-4H211c2.2,0,4,1.8,4,4S213.2,167.3,211,167.3z"/>
	</g>
	<g class="st1">
		<line class="st8" x1="141.7" y1="183.3" x2="211" y2="183.3"/>
		<path class="st5" d="M211,187.3h-69.3c-2.2,0-4-1.8-4-4s1.8-4,4-4H211c2.2,0,4,1.8,4,4S213.2,187.3,211,187.3z"/>
	</g>
	<rect x="46.7" y="78.7" class="st7" width="190" height="26.9"/>
	<circle class="st3" cx="226" cy="90.3" r="6"/>
	<circle class="st3" cx="206" cy="90.3" r="6"/>
	<circle class="st3" cx="186" cy="90.3" r="6"/>
</g>
<g id="Layer_1_copy_2">
	<circle class="st5" cx="141.7" cy="141.8" r="141.7"/>
	<g>
		<g>
			<rect x="50.7" y="82.8" class="st4" width="182" height="118"/>
			<path class="st4" d="M141.7,0.1C63.5,0.1,0,63.6,0,141.8s63.5,141.7,141.7,141.7s141.8-63.4,141.8-141.7S220,0.1,141.7,0.1z
				 M240.7,204.8c0,2.2-1.8,4-4,4h-190c-2.2,0-4-1.8-4-4v-126c0-2.2,1.8-4,4-4h190c2.2,0,4,1.8,4,4V204.8z"/>
		</g>
		<g>
			<path class="st5" d="M115,119.4H69.7c-2.2,0-4,1.8-4,4v60.7c0,2.2,1.8,4,4,4H115c2.2,0,4-1.8,4-4v-60.7
				C119,121.2,117.2,119.4,115,119.4z M111,180.1H73.7v-52.7H111V180.1z"/>
			<path class="st5" d="M141.7,119.4c-2.2,0-4,1.8-4,4s1.8,4,4,4H211c2.2,0,4-1.8,4-4s-1.8-4-4-4"/>
			<path class="st5" d="M211,139.4h-69.3c-2.2,0-4,1.8-4,4s1.8,4,4,4H211c2.2,0,4-1.8,4-4S213.2,139.4,211,139.4z"/>
			<path class="st5" d="M211,159.4h-69.3c-2.2,0-4,1.8-4,4s1.8,4,4,4H211c2.2,0,4-1.8,4-4S213.2,159.4,211,159.4z"/>
			<path class="st5" d="M211,179.4h-69.3c-2.2,0-4,1.8-4,4s1.8,4,4,4H211c2.2,0,4-1.8,4-4S213.2,179.4,211,179.4z"/>
			<rect x="46.7" y="78.8" class="st5" width="190" height="26.9"/>
		</g>
	</g>
	<circle class="st4" cx="226" cy="90.4" r="6"/>
	<circle class="st4" cx="206" cy="90.4" r="6"/>
	<circle class="st4" cx="186" cy="90.4" r="6"/>
</g>
<g>
	<defs>
		<circle id="SVGID_1_" cx="141.7" cy="141.7" r="141.7"/>
	</defs>
	<clipPath id="SVGID_2_">
		<use xlink:href="#SVGID_1_"  style="overflow:visible;"/>
	</clipPath>
	<g class="st9">
		<polygon class="st10" points="167.7,230.2 212.1,210.8 188.1,186.8 167.7,195.8 		"/>
		<polygon class="st5" points="216.2,214.4 167.2,235.9 169.1,240.5 179,236.2 177.9,233.6 187.1,229.8 188.1,232.2 199.4,227.3 
			197.9,223.6 207.1,219.8 208.6,223.3 218.2,219.1 		"/>
		<path class="st5" d="M162.7,198v-43.7l57.5,57.5l4.9-2c-0.2-0.3-0.4-0.6-0.7-0.9l-58.1-58.1c-1.4-1.4-3.6-1.9-5.4-1.1
			c-1.9,0.8-3.1,2.6-3.1,4.6v83.6c0,0.6,0.1,1.2,0.3,1.7l4.7-1.9V198z"/>
		<polygon class="st5" points="220.2,211.8 162.7,154.3 193,184.6 188.1,186.8 212.1,210.8 167.7,230.2 167.7,195.8 162.7,198 
			162.7,237.6 167.1,235.8 167.2,235.9 216.2,214.4 215.9,213.6 		"/>
		<polygon class="st5" points="167.7,195.8 188.1,186.8 167.7,166.4 		"/>
		<polygon class="st5" points="167.7,166.4 188.1,186.8 193,184.6 162.7,154.3 162.7,198 167.7,195.8 		"/>
		<path class="st5" d="M162.7,242.9c-1,0-1.9-0.3-2.7-0.8c-0.9-0.6-1.6-1.5-2-2.5l-0.1,0l18.3,44.2l9.2-3.8l-16.3-39.4l-4.4,1.9
			C164,242.7,163.3,242.9,162.7,242.9z"/>
		<path class="st5" d="M162.7,237.9v-0.2l-4.7,1.9c0.4,1,1,1.9,2,2.5c0.8,0.5,1.8,0.8,2.7,0.8c0.7,0,1.4-0.1,2-0.4l4.4-1.9l-1.9-4.6
			L162.7,237.9z"/>
		<polygon class="st5" points="162.7,237.6 162.7,237.9 167.2,235.9 167.1,235.8 		"/>
		<path class="st5" d="M225.7,213.4c-0.3,1.6-1.4,3-2.9,3.7l-4.7,2l16,38.7l9.2-3.8l-18.3-44.2l-0.1,0
			C225.7,210.9,226,212.1,225.7,213.4z"/>
		<path class="st5" d="M220.8,212.4l-4.6,2l1.9,4.6l4.7-2c1.5-0.7,2.6-2,2.9-3.7c0.2-1.2,0-2.5-0.7-3.6l-4.9,2L220.8,212.4z"/>
		<polygon class="st5" points="220.2,211.8 215.9,213.6 216.2,214.4 220.8,212.4 		"/>
		<polygon class="st5" points="216.2,267.8 225.4,263.9 208.6,223.3 199.4,227.3 		"/>
		<polygon class="st5" points="197.9,223.6 199.4,227.3 208.6,223.3 207.1,219.8 		"/>
		<polygon class="st5" points="196.2,277.8 205.4,273.9 188.1,232.2 179,236.2 		"/>
		<polygon class="st5" points="177.9,233.6 179,236.2 188.1,232.2 187.1,229.8 		"/>
	</g>
</g>
</svg>
