<?xml version="1.0" encoding="utf-8"?>
<!-- Generator: Adobe Illustrator 19.2.0, SVG Export Plug-In . SVG Version: 6.00 Build 0)  -->
<svg version="1.1" id="Layer_1" xmlns="http://www.w3.org/2000/svg" xmlns:xlink="http://www.w3.org/1999/xlink" x="0px" y="0px"
	 viewBox="0 0 283.5 283.5" style="enable-background:new 0 0 283.5 283.5;" xml:space="preserve">
<style type="text/css">
	.st0{display:none;}
	.st1{display:inline;}
	.st2{fill:none;stroke:#2CBBAB;stroke-width:9;stroke-linecap:round;stroke-miterlimit:10;}
	.st3{display:inline;fill:#2CBBAB;}
	.st4{fill:#2CBBAB;}
	.st5{fill:#FFFFFF;}
	.st6{display:inline;fill:none;stroke:#FFFFFF;stroke-width:8;stroke-linejoin:round;stroke-miterlimit:10;}
	.st7{display:inline;fill:#FFFFFF;}
	.st8{fill:none;}
	.st9{fill:none;stroke:#FFFFFF;stroke-width:10;stroke-linecap:round;stroke-linejoin:round;stroke-miterlimit:10;}
</style>
<g id="Layer_1_1_" class="st0">
	
		<image style="display:inline;overflow:visible;enable-background:new    ;" width="945" height="630" xlink:href="C11D78F.jpeg"  transform="matrix(0.2316 0 0 0.4719 32.3092 30.6792)">
	</image>
	<g class="st1">
		<path class="st2" d="M56.4,120c0,0,16.3-8.8,44.5-30.4c24.4-18.6,50.2-44.5,57.7-37c11.6,11.6-58,67.4-58,67.4"/>
		<path class="st2" d="M113,138.9c0,0,3-6.1,9-11.8c10.6-10.1,17.4-23.1,4.4-28.6"/>
		<path class="st2" d="M121.2,161.3c0,0,1.3-5.4,6.1-12.2c7.7-11.1,18.2-26.2,2-30.5"/>
		<path class="st2" d="M27.7,254.9c0,0,32-33,45.7-43.4c15-11.4,38.6-16.1,51.4-28.3c18.4-17.4,21.7-40.5,6.1-39.3"/>
		<path class="st2" d="M-14.5,212.7c0,0,29-29.3,34.6-46.9c6.6-20.6,5.1-43.8,11.1-51.1c5.1-6.3,32.9-57.4,32.9-57.4
			s31.9-7.5-1.5,57.4"/>
	</g>
	<circle class="st3" cx="141.7" cy="141.7" r="141.7"/>
	<g class="st1">
		<rect x="46.7" y="78.7" class="st4" width="190" height="126"/>
		<path class="st5" d="M236.7,208.7h-190c-2.2,0-4-1.8-4-4v-126c0-2.2,1.8-4,4-4h190c2.2,0,4,1.8,4,4v126
			C240.7,206.9,238.9,208.7,236.7,208.7z M50.7,200.7h182v-118h-182C50.7,82.7,50.7,200.7,50.7,200.7z"/>
	</g>
	<line class="st6" x1="46.7" y1="102" x2="236.7" y2="102"/>
	<path class="st7" d="M115,188H69.7c-2.2,0-4-1.8-4-4v-60.7c0-2.2,1.8-4,4-4H115c2.2,0,4,1.8,4,4V184C119,186.2,117.2,188,115,188z
		 M73.7,180H111v-52.7H73.7V180z"/>
	<g class="st1">
		<line class="st8" x1="141.7" y1="123.3" x2="211" y2="123.3"/>
		<path class="st5" d="M211,127.3h-69.3c-2.2,0-4-1.8-4-4s1.8-4,4-4H211c2.2,0,4,1.8,4,4S213.2,127.3,211,127.3z"/>
	</g>
	<g class="st1">
		<line class="st8" x1="141.7" y1="143.3" x2="211" y2="143.3"/>
		<path class="st5" d="M211,147.3h-69.3c-2.2,0-4-1.8-4-4s1.8-4,4-4H211c2.2,0,4,1.8,4,4S213.2,147.3,211,147.3z"/>
	</g>
	<g class="st1">
		<line class="st8" x1="141.7" y1="163.3" x2="211" y2="163.3"/>
		<path class="st5" d="M211,167.3h-69.3c-2.2,0-4-1.8-4-4s1.8-4,4-4H211c2.2,0,4,1.8,4,4S213.2,167.3,211,167.3z"/>
	</g>
	<g class="st1">
		<line class="st8" x1="141.7" y1="183.3" x2="211" y2="183.3"/>
		<path class="st5" d="M211,187.3h-69.3c-2.2,0-4-1.8-4-4s1.8-4,4-4H211c2.2,0,4,1.8,4,4S213.2,187.3,211,187.3z"/>
	</g>
	<rect x="46.7" y="78.7" class="st7" width="190" height="26.9"/>
	<circle class="st3" cx="226" cy="90.3" r="6"/>
	<circle class="st3" cx="206" cy="90.3" r="6"/>
	<circle class="st3" cx="186" cy="90.3" r="6"/>
</g>
<g id="Layer_1_copy_2">
	<circle class="st5" cx="141.7" cy="141.7" r="141.7"/>
	<g>
		<g>
			<rect x="50.7" y="82.7" class="st4" width="182" height="118"/>
			<path class="st4" d="M141.7,0C63.5,0,0,63.5,0,141.7s63.5,141.7,141.7,141.7S283.5,220,283.5,141.7S220,0,141.7,0z M240.7,204.7
				c0,2.2-1.8,4-4,4h-190c-2.2,0-4-1.8-4-4v-126c0-2.2,1.8-4,4-4h190c2.2,0,4,1.8,4,4V204.7z"/>
		</g>
		<g>
			<rect x="46.7" y="78.7" class="st5" width="190" height="26.9"/>
		</g>
	</g>
	<circle class="st4" cx="226" cy="90.3" r="6"/>
	<circle class="st4" cx="206" cy="90.3" r="6"/>
	<circle class="st4" cx="186" cy="90.3" r="6"/>
</g>
<polyline class="st9" points="113,131.3 90.5,153.8 112.8,176.2 "/>
<polyline class="st9" points="170.5,176.2 193,153.7 170.6,131.3 "/>
<line class="st9" x1="131" y1="183.3" x2="152.5" y2="123.2"/>
</svg>
